Panamera-Bold.ufo
<glyph name="numbersign" format="1">
  <advance width="823"/>
  <unicode hex="0023"/>
  <outline>
    <contour>
      <point x="820" y="444" type="line"/>
      <point x="820" y="564" type="line"/>
      <point x="712.167" y="564" type="line"/>
      <point x="775" y="752" type="line"/>
      <point x="619" y="752" type="line"/>
      <point x="555.918" y="564" type="line"/>
      <point x="407.918" y="564" type="line"/>
      <point x="471" y="752" type="line"/>
      <point x="315" y="752" type="line"/>
      <point x="251.918" y="564" type="line"/>
      <point x="81" y="564" type="line"/>
      <point x="81" y="444" type="line"/>
      <point x="211.652" y="444" type="line"/>
      <point x="159.643" y="289" type="line"/>
      <point x="21" y="289" type="line"/>
      <point x="21" y="169" type="line"/>
      <point x="119.378" y="169" type="line"/>
      <point x="62" y="-2" type="line"/>
      <point x="218" y="-2" type="line"/>
      <point x="275.378" y="169" type="line"/>
      <point x="423.378" y="169" type="line"/>
      <point x="366" y="-2" type="line"/>
      <point x="523" y="-2" type="line"/>
      <point x="580.151" y="169" type="line"/>
      <point x="750" y="169" type="line"/>
      <point x="750" y="289" type="line"/>
      <point x="620.257" y="289" type="line"/>
      <point x="672.061" y="444" type="line"/>
    </contour>
    <contour>
      <point x="463.643" y="289" type="line"/>
      <point x="315.643" y="289" type="line"/>
      <point x="367.653" y="444" type="line"/>
      <point x="515.653" y="444" type="line"/>
    </contour>
  </outline>
</glyph>
<glyph name="dollar" format="1">
  <advance width="572"/>
  <unicode hex="0024"/>
  <outline>
    <contour>
      <point x="334.757" y="804" type="line"/>
      <point x="334.757" y="-101" type="line"/>
      <point x="385.442" y="-101" type="line"/>
      <point x="385.442" y="804" type="line"/>
    </contour>
    <contour>
      <point x="256" y="804" type="line"/>
      <point x="256" y="-101" type="line"/>
      <point x="306.685" y="-101" type="line"/>
      <point x="306.685" y="804" type="line"/>
    </contour>
    <component base="S"/>
  </outline>
</glyph>
<glyph name="ampersand" format="1">
  <advance width="890"/>
  <unicode hex="0026"/>
  <outline>
    <contour>
      <point x="686" y="189" type="line"/>
      <point x="771" y="113"/>
      <point x="749" y="64"/>
      <point x="711" y="64" type="curve" smooth="yes"/>
      <point x="689.950" y="64"/>
      <point x="661.353" y="78.629"/>
      <point x="628.994" y="103.099" type="curve"/>
      <point x="687.678" y="180.287"/>
      <point x="725.716" y="290.990"/>
      <point x="724" y="442" type="curve"/>
      <point x="559" y="442" type="line"/>
      <point x="559.733" y="336.488"/>
      <point x="547.849" y="257.552"/>
      <point x="525.659" y="199.881" type="curve"/>
      <point x="476.567" y="253.246"/>
      <point x="427.434" y="316.053"/>
      <point x="387.775" y="376.261" type="curve"/>
      <point x="497.842" y="411.468"/>
      <point x="607" y="454.504"/>
      <point x="607" y="574" type="curve" smooth="yes"/>
      <point x="607" y="664"/>
      <point x="515" y="750"/>
      <point x="386" y="750" type="curve" smooth="yes"/>
      <point x="255" y="750"/>
      <point x="146" y="679"/>
      <point x="146" y="569" type="curve" smooth="yes"/>
      <point x="146" y="524"/>
      <point x="161" y="477"/>
      <point x="186.056" y="434.483" type="curve"/>
      <point x="91.028" y="395.870"/>
      <point x="7" y="337.892"/>
      <point x="7" y="221" type="curve" smooth="yes"/>
      <point x="7" y="84"/>
      <point x="142" y="-43"/>
      <point x="330" y="-43" type="curve" smooth="yes"/>
      <point x="401.359" y="-43"/>
      <point x="476.544" y="-23.424"/>
      <point x="541.891" y="20.584" type="curve"/>
      <point x="601.180" y="-18.752"/>
      <point x="659.589" y="-43"/>
      <point x="711" y="-43" type="curve" smooth="yes"/>
      <point x="881" y="-43"/>
      <point x="949" y="100"/>
      <point x="798" y="266" type="curve"/>
    </contour>
    <contour>
      <point x="302" y="622"/>
      <point x="346" y="643"/>
      <point x="386" y="643" type="curve" smooth="yes"/>
      <point x="428" y="643"/>
      <point x="462" y="626"/>
      <point x="462" y="574" type="curve" smooth="yes"/>
      <point x="462" y="520"/>
      <point x="397.729" y="506.030"/>
      <point x="327.092" y="482.615" type="curve"/>
      <point x="311.252" y="516.852"/>
      <point x="302" y="546.771"/>
      <point x="302" y="569" type="curve" smooth="yes"/>
    </contour>
    <contour>
      <point x="234" y="64"/>
      <point x="163" y="127"/>
      <point x="163" y="221" type="curve" smooth="yes"/>
      <point x="163" y="272.075"/>
      <point x="197.967" y="303.304"/>
      <point x="248.275" y="327.130" type="curve"/>
      <point x="302.349" y="245.814"/>
      <point x="372.847" y="162.170"/>
      <point x="447.198" y="95.015" type="curve"/>
      <point x="413.938" y="73.168"/>
      <point x="374.363" y="64"/>
      <point x="330" y="64" type="curve" smooth="yes"/>
    </contour>
    <contour>
      <point x="394" y="691" type="move" name="top"/>
    </contour>
    <contour>
      <point x="394" y="10" type="move" name="bottom"/>
    </contour>
  </outline>
</glyph>
<glyph name="asterisk" format="1">
  <advance width="600"/>
  <unicode hex="002A"/>
  <outline>
    <contour>
      <point x="459" y="585" type="line"/>
      <point x="442" y="640" type="line"/>
      <point x="377.914" y="619.167" type="line"/>
      <point x="414" y="669" type="line"/>
      <point x="353" y="712" type="line"/>
      <point x="331" y="681.619" type="line"/>
      <point x="331" y="717" type="line"/>
      <point x="247" y="717" type="line"/>
      <point x="247" y="680.571" type="line"/>
      <point x="224" y="712" type="line"/>
      <point x="163" y="669" type="line"/>
      <point x="198.315" y="620.743" type="line"/>
      <point x="136" y="641" type="line"/>
      <point x="119" y="584" type="line"/>
      <point x="194.367" y="559.500" type="line"/>
      <point x="119" y="535" type="line"/>
      <point x="136" y="480" type="line"/>
      <point x="200.086" y="500.833" type="line"/>
      <point x="164" y="451" type="line"/>
      <point x="225" y="408" type="line"/>
      <point x="247" y="438.381" type="line"/>
      <point x="247" y="403" type="line"/>
      <point x="331" y="403" type="line"/>
      <point x="331" y="439.429" type="line"/>
      <point x="354" y="408" type="line"/>
      <point x="415" y="451" type="line"/>
      <point x="379.685" y="499.257" type="line"/>
      <point x="442" y="479" type="line"/>
      <point x="459" y="536" type="line"/>
      <point x="383.633" y="560.500" type="line"/>
    </contour>
  </outline>
</glyph>
<glyph name="comma" format="1">
  <advance width="380"/>
  <unicode hex="002C"/>
  <outline>
    <contour>
      <point x="128" y="0" type="line"/>
      <point x="128" y="-38"/>
      <point x="124" y="-80"/>
      <point x="83" y="-95" type="curve"/>
      <point x="83" y="-169" type="line"/>
      <point x="220" y="-153"/>
      <point x="244" y="-38"/>
      <point x="244" y="0" type="curve" smooth="yes"/>
      <point x="244" y="94" type="line"/>
    </contour>
    <component base="period" xOffset="20"/>
  </outline>
</glyph>
<glyph name="one" format="1">
  <advance width="377"/>
  <unicode hex="0031"/>
  <outline>
    <contour>
      <point x="174" y="700" type="line"/>
      <point x="174" y="682.171" type="line"/>
      <point x="168.662" y="633.758"/>
      <point x="116.955" y="617.255"/>
      <point x="29" y="637" type="curve"/>
      <point x="29" y="537" type="line"/>
      <point x="174" y="537" type="line"/>
      <point x="174" y="0" type="line"/>
      <point x="328" y="0" type="line"/>
      <point x="328" y="700" type="line"/>
    </contour>
  </outline>
</glyph>
<glyph name="two" format="1">
  <advance width="557"/>
  <unicode hex="0032"/>
  <outline>
    <contour>
      <point x="197" y="523" type="line"/>
      <point x="195" y="573"/>
      <point x="215" y="604"/>
      <point x="278" y="604" type="curve" smooth="yes"/>
      <point x="327" y="604"/>
      <point x="364" y="565"/>
      <point x="363" y="485" type="curve" smooth="yes"/>
      <point x="361" y="293"/>
      <point x="83" y="209"/>
      <point x="23" y="100" type="curve"/>
      <point x="22" y="0" type="line"/>
      <point x="535" y="0" type="line"/>
      <point x="535" y="123" type="line"/>
      <point x="223" y="123" type="line"/>
      <point x="284" y="202"/>
      <point x="518" y="275"/>
      <point x="516" y="496" type="curve" smooth="yes"/>
      <point x="515" y="619"/>
      <point x="436" y="713"/>
      <point x="278" y="713" type="curve" smooth="yes"/>
      <point x="122" y="713"/>
      <point x="26" y="620"/>
      <point x="44" y="509" type="curve"/>
    </contour>
  </outline>
</glyph>
<glyph name="three" format="1">
  <advance width="603.152"/>
  <unicode hex="0033"/>
  <outline>
    <contour>
      <point x="551.152" y="602" type="line"/>
      <point x="551.152" y="700" type="line"/>
      <point x="74.152" y="700" type="line"/>
      <point x="74.152" y="592" type="line"/>
      <point x="355.152" y="592" type="line"/>
      <point x="180.152" y="404" type="line"/>
      <point x="245.152" y="326" type="line"/>
      <point x="282.152" y="337"/>
      <point x="291.152" y="340"/>
      <point x="312.152" y="340" type="curve" smooth="yes"/>
      <point x="368.152" y="340"/>
      <point x="410.152" y="301"/>
      <point x="410.152" y="220" type="curve" smooth="yes"/>
      <point x="410.152" y="137"/>
      <point x="360.152" y="98"/>
      <point x="302.152" y="98" type="curve" smooth="yes"/>
      <point x="231.152" y="98"/>
      <point x="190.152" y="130"/>
      <point x="193.152" y="229" type="curve"/>
      <point x="40.152" y="229" type="line"/>
      <point x="35.152" y="71"/>
      <point x="154.152" y="-10"/>
      <point x="302.152" y="-10" type="curve" smooth="yes"/>
      <point x="435.152" y="-10"/>
      <point x="563.152" y="80"/>
      <point x="563.152" y="220" type="curve" smooth="yes"/>
      <point x="563.152" y="337"/>
      <point x="483.152" y="411"/>
      <point x="383.152" y="430" type="curve"/>
    </contour>
  </outline>
</glyph>
<glyph name="six" format="1">
  <advance width="547"/>
  <unicode hex="0036"/>
  <outline>
    <contour>
      <point x="448" y="700" type="line"/>
      <point x="272" y="700" type="line"/>
      <point x="192" y="571"/>
      <point x="104" y="447"/>
      <point x="32" y="313" type="curve" smooth="yes"/>
      <point x="17" y="285"/>
      <point x="11" y="254.124"/>
      <point x="11" y="220" type="curve" smooth="yes"/>
      <point x="11" y="81"/>
      <point x="140" y="-10"/>
      <point x="273" y="-10" type="curve" smooth="yes"/>
      <point x="406" y="-10"/>
      <point x="534" y="80"/>
      <point x="534" y="220" type="curve" smooth="yes"/>
      <point x="534" y="351.953"/>
      <point x="417.749" y="440.649"/>
      <point x="292.183" y="449.304" type="curve"/>
    </contour>
    <contour>
      <point x="214" y="99"/>
      <point x="165" y="137"/>
      <point x="165" y="220" type="curve" smooth="yes"/>
      <point x="165" y="302"/>
      <point x="215" y="341"/>
      <point x="273" y="341" type="curve" smooth="yes"/>
      <point x="331" y="341"/>
      <point x="380" y="303"/>
      <point x="380" y="220" type="curve" smooth="yes"/>
      <point x="380" y="138"/>
      <point x="330" y="99"/>
      <point x="272" y="99" type="curve" smooth="yes"/>
    </contour>
  </outline>
</glyph>
<glyph name="seven" format="1">
  <advance width="504"/>
  <unicode hex="0037"/>
  <outline>
    <contour>
      <point x="517" y="700" type="line"/>
      <point x="28" y="700" type="line"/>
      <point x="28" y="576" type="line"/>
      <point x="293.771" y="576" type="line"/>
      <point x="14" y="0" type="line"/>
      <point x="186" y="0" type="line"/>
      <point x="514.443" y="696.697" type="line"/>
    </contour>
  </outline>
</glyph>
<glyph name="eight" format="1">
  <advance width="568.230"/>
  <unicode hex="0038"/>
  <outline>
    <contour>
      <point x="484.301" y="426.259"/>
      <point x="508.840" y="468.957"/>
      <point x="508.840" y="521.675" type="curve" smooth="yes"/>
      <point x="508.840" y="639.845"/>
      <point x="386.630" y="708.525"/>
      <point x="283.610" y="708.525" type="curve" smooth="yes"/>
      <point x="180.590" y="708.525"/>
      <point x="59.390" y="640.855"/>
      <point x="59.390" y="522.685" type="curve" smooth="yes"/>
      <point x="59.390" y="470.127"/>
      <point x="83.984" y="427.326"/>
      <point x="120.406" y="396.104" type="curve"/>
      <point x="60.814" y="357.478"/>
      <point x="20" y="296.739"/>
      <point x="20" y="220.695" type="curve" smooth="yes"/>
      <point x="20" y="84.345"/>
      <point x="150.290" y="-3.525"/>
      <point x="284.620" y="-3.525" type="curve" smooth="yes"/>
      <point x="418.950" y="-3.525"/>
      <point x="548.230" y="83.335"/>
      <point x="548.230" y="219.685" type="curve" smooth="yes"/>
      <point x="548.230" y="295.435"/>
      <point x="507.415" y="356.314"/>
      <point x="447.921" y="395.238" type="curve"/>
    </contour>
    <contour>
      <point x="214.238" y="582.871"/>
      <point x="251.982" y="603.273"/>
      <point x="284.625" y="603.273" type="curve" smooth="yes"/>
      <point x="317.268" y="603.273"/>
      <point x="353.992" y="583.891"/>
      <point x="353.992" y="522.685" type="curve" smooth="yes"/>
      <point x="353.992" y="470.660"/>
      <point x="321.349" y="442.097"/>
      <point x="283.605" y="442.097" type="curve" smooth="yes"/>
      <point x="245.861" y="442.097"/>
      <point x="214.238" y="470.660"/>
      <point x="214.238" y="521.665" type="curve" smooth="yes"/>
    </contour>
    <contour>
      <point x="224.439" y="101.353"/>
      <point x="174.454" y="139.097"/>
      <point x="174.454" y="219.685" type="curve" smooth="yes"/>
      <point x="174.454" y="299.253"/>
      <point x="225.459" y="338.017"/>
      <point x="284.625" y="338.017" type="curve" smooth="yes"/>
      <point x="343.791" y="338.017"/>
      <point x="393.776" y="300.273"/>
      <point x="393.776" y="220.705" type="curve" smooth="yes"/>
      <point x="393.776" y="139.097"/>
      <point x="342.771" y="101.353"/>
      <point x="283.605" y="101.353" type="curve" smooth="yes"/>
    </contour>
  </outline>
</glyph>
<glyph name="nine" format="1">
  <advance width="600"/>
  <unicode hex="0039"/>
  <outline>
    <contour>
      <point x="572" y="624"/>
      <point x="443" y="712"/>
      <point x="310" y="712" type="curve" smooth="yes"/>
      <point x="177" y="712"/>
      <point x="49" y="625"/>
      <point x="49" y="491" type="curve" smooth="yes"/>
      <point x="49" y="359.393"/>
      <point x="171.597" y="273.403"/>
      <point x="300.981" y="269.164" type="curve"/>
      <point x="134" y="0" type="line"/>
      <point x="310" y="0" type="line"/>
      <point x="393" y="140"/>
      <point x="498" y="270"/>
      <point x="560" y="421" type="curve" smooth="yes"/>
      <point x="569" y="443"/>
      <point x="572" y="465.444"/>
      <point x="572" y="490" type="curve" smooth="yes"/>
    </contour>
    <contour>
      <point x="203" y="569"/>
      <point x="253" y="607"/>
      <point x="311" y="607" type="curve" smooth="yes"/>
      <point x="369" y="607"/>
      <point x="418" y="569"/>
      <point x="418" y="491" type="curve" smooth="yes"/>
      <point x="418" y="412"/>
      <point x="368" y="374"/>
      <point x="310" y="374" type="curve" smooth="yes"/>
      <point x="252" y="374"/>
      <point x="203" y="411"/>
      <point x="203" y="490" type="curve" smooth="yes"/>
    </contour>
  </outline>
</glyph>
<glyph name="at" format="1">
  <advance width="968"/>
  <unicode hex="0040"/>
  <outline>
    <contour>
      <point x="286" y="281"/>
      <point x="226" y="216"/>
      <point x="226" y="143" type="curve" smooth="yes"/>
      <point x="226" y="54"/>
      <point x="302" y="-15"/>
      <point x="434" y="-15" type="curve" smooth="yes"/>
      <point x="509.593" y="-15"/>
      <point x="562.357" y="10.768"/>
      <point x="596.912" y="47.796" type="curve"/>
      <point x="625.944" y="11.047"/>
      <point x="674.022" y="-15"/>
      <point x="738" y="-15" type="curve" smooth="yes"/>
      <point x="881" y="-15"/>
      <point x="950" y="98"/>
      <point x="950" y="233" type="curve" smooth="yes"/>
      <point x="950" y="481"/>
      <point x="765" y="694"/>
      <point x="484" y="694" type="curve" smooth="yes"/>
      <point x="203" y="694"/>
      <point x="18" y="481"/>
      <point x="18" y="233" type="curve" smooth="yes"/>
      <point x="18" y="-12"/>
      <point x="204" y="-223"/>
      <point x="484" y="-223" type="curve" smooth="yes"/>
      <point x="612" y="-223"/>
      <point x="728" y="-187"/>
      <point x="801" y="-118" type="curve"/>
      <point x="698" y="-20" type="line"/>
      <point x="639" y="-81"/>
      <point x="574" y="-100"/>
      <point x="484" y="-100" type="curve" smooth="yes"/>
      <point x="305" y="-100"/>
      <point x="185" y="36"/>
      <point x="185" y="233" type="curve" smooth="yes"/>
      <point x="185" y="433"/>
      <point x="306" y="572"/>
      <point x="484" y="572" type="curve" smooth="yes"/>
      <point x="663" y="572"/>
      <point x="783" y="433"/>
      <point x="783" y="233" type="curve" smooth="yes"/>
      <point x="783" y="128"/>
      <point x="758" y="102"/>
      <point x="745" y="102" type="curve" smooth="yes"/>
      <point x="726" y="102"/>
      <point x="718" y="111"/>
      <point x="718" y="137" type="curve" smooth="yes"/>
      <point x="718" y="302" type="line" smooth="yes"/>
      <point x="718" y="381"/>
      <point x="699" y="512"/>
      <point x="491" y="512" type="curve" smooth="yes"/>
      <point x="354" y="512"/>
      <point x="242" y="421"/>
      <point x="271" y="326" type="curve"/>
      <point x="431" y="325" type="line"/>
      <point x="428" y="332"/>
      <point x="433" y="405"/>
      <point x="491" y="405" type="curve" smooth="yes"/>
      <point x="529.447" y="405"/>
      <point x="548.045" y="389.843"/>
      <point x="556.984" y="363.865" type="curve"/>
      <point x="560.774" y="335.405"/>
      <point x="525.446" y="306.108"/>
      <point x="451" y="298" type="curve" smooth="yes"/>
    </contour>
    <contour>
      <point x="399" y="79"/>
      <point x="385" y="115"/>
      <point x="385" y="147" type="curve" smooth="yes"/>
      <point x="385" y="188"/>
      <point x="414" y="207"/>
      <point x="462" y="213" type="curve" smooth="yes"/>
      <point x="498.325" y="217.112"/>
      <point x="533.710" y="225.570"/>
      <point x="564.453" y="238.613" type="curve"/>
      <point x="568.362" y="122.344"/>
      <point x="508.590" y="79"/>
      <point x="448" y="79" type="curve" smooth="yes"/>
    </contour>
  </outline>
</glyph>
<glyph name="A" format="1">
  <advance width="812.920"/>
  <unicode hex="0041"/>
  <outline>
    <contour>
      <point x="324" y="700" type="line"/>
      <point x="610.920" y="0" type="line"/>
      <point x="772.920" y="0" type="line"/>
      <point x="488.920" y="700" type="line"/>
    </contour>
    <contour>
      <point x="324" y="700" type="line"/>
      <point x="40" y="0" type="line"/>
      <point x="202" y="0" type="line"/>
      <point x="488.920" y="700" type="line"/>
    </contour>
    <contour>
      <point x="258.600" y="288" type="line"/>
      <point x="258.920" y="177" type="line"/>
      <point x="554.920" y="177" type="line"/>
      <point x="554.920" y="288" type="line"/>
    </contour>
    <contour>
      <point x="712.920" y="19" type="move" name="ogonek"/>
    </contour>
    <contour>
      <point x="422.920" y="690" type="move" name="top"/>
    </contour>
  </outline>
</glyph>
<glyph name="B" format="1">
  <advance width="630"/>
  <unicode hex="0042"/>
  <outline>
    <contour>
      <point x="76.261" y="437.045" type="line"/>
      <point x="77.629" y="351.447" type="line"/>
      <point x="294.588" y="352" type="line"/>
      <point x="394.572" y="352"/>
      <point x="446" y="315.591"/>
      <point x="446" y="225" type="curve" smooth="yes"/>
      <point x="446" y="144"/>
      <point x="387.261" y="115"/>
      <point x="297.261" y="115" type="curve" smooth="yes"/>
      <point x="187" y="115" type="line"/>
      <point x="187" y="0" type="line"/>
      <point x="315" y="0" type="line" smooth="yes"/>
      <point x="475" y="0"/>
      <point x="600" y="77"/>
      <point x="600" y="225" type="curve" smooth="yes"/>
      <point x="600" y="407.287"/>
      <point x="429.882" y="437.783"/>
      <point x="274.941" y="437.463" type="curve" smooth="yes"/>
    </contour>
    <contour>
      <point x="50" y="700" type="line"/>
      <point x="50" y="0" type="line"/>
      <point x="203" y="0" type="line"/>
      <point x="203" y="700" type="line"/>
    </contour>
    <contour>
      <point x="184.336" y="700" type="line"/>
      <point x="184.336" y="585" type="line"/>
      <point x="260" y="585" type="line" smooth="yes"/>
      <point x="311" y="585"/>
      <point x="345" y="564"/>
      <point x="345" y="508" type="curve" smooth="yes"/>
      <point x="345" y="462"/>
      <point x="311" y="438"/>
      <point x="257" y="438" type="curve" smooth="yes"/>
      <point x="76.623" y="438" type="line"/>
      <point x="76.623" y="352" type="line"/>
      <point x="261.458" y="352" type="line" smooth="yes"/>
      <point x="395.037" y="352"/>
      <point x="488" y="423.147"/>
      <point x="488" y="528" type="curve" smooth="yes"/>
      <point x="488" y="657"/>
      <point x="373" y="700"/>
      <point x="260" y="700" type="curve" smooth="yes"/>
    </contour>
  </outline>
</glyph>
<glyph name="D" format="1">
  <advance width="690"/>
  <unicode hex="0044"/>
  <outline>
    <contour>
      <point x="92.429" y="700" type="line"/>
      <point x="92.429" y="585" type="line"/>
      <point x="260" y="585" type="line" smooth="yes"/>
      <point x="401.489" y="585"/>
      <point x="496" y="528"/>
      <point x="496" y="351" type="curve" smooth="yes"/>
      <point x="496" y="176"/>
      <point x="423" y="115"/>
      <point x="275" y="115" type="curve" smooth="yes"/>
      <point x="182.709" y="115" type="line"/>
      <point x="179.583" y="0" type="line"/>
      <point x="275" y="0" type="line" smooth="yes"/>
      <point x="496" y="0"/>
      <point x="655" y="109"/>
      <point x="655" y="351" type="curve" smooth="yes"/>
      <point x="655" y="599"/>
      <point x="474" y="700"/>
      <point x="260" y="700" type="curve" smooth="yes"/>
    </contour>
    <contour>
      <point x="50" y="700" type="line"/>
      <point x="50" y="0" type="line"/>
      <point x="203.583" y="0" type="line"/>
      <point x="204" y="700" type="line"/>
    </contour>
    <contour>
      <point x="338" y="350" type="move" name="center"/>
    </contour>
    <contour>
      <point x="338" y="690" type="move" name="top"/>
    </contour>
  </outline>
</glyph>
<glyph name="E" format="1">
  <advance width="669"/>
  <unicode hex="0045"/>
  <outline>
    <contour>
      <point x="50" y="700" type="line"/>
      <point x="50" y="0" type="line"/>
      <point x="204" y="0" type="line"/>
      <point x="204" y="700" type="line"/>
    </contour>
    <contour>
      <point x="72.775" y="124" type="line"/>
      <point x="70.195" y="0" type="line"/>
      <point x="629" y="0" type="line"/>
      <point x="629" y="124" type="line"/>
    </contour>
    <contour>
      <point x="72.775" y="420" type="line"/>
      <point x="72.775" y="296" type="line"/>
      <point x="609" y="296" type="line"/>
      <point x="609" y="420" type="line"/>
    </contour>
    <contour>
      <point x="71.096" y="700" type="line"/>
      <point x="72.775" y="576" type="line"/>
      <point x="619" y="576" type="line"/>
      <point x="619" y="700" type="line"/>
    </contour>
    <contour>
      <point x="524" y="0" type="move" name="ogonek"/>
    </contour>
    <contour>
      <point x="302" y="0" type="move" name="bottom"/>
    </contour>
    <contour>
      <point x="334" y="690" type="move" name="top"/>
    </contour>
  </outline>
</glyph>
<glyph name="F" format="1">
  <advance width="669"/>
  <unicode hex="0046"/>
  <outline>
    <contour>
      <point x="629" y="576" type="line"/>
      <point x="629" y="700" type="line"/>
      <point x="60" y="700" type="line"/>
      <point x="60" y="0" type="line"/>
      <point x="214" y="0" type="line"/>
      <point x="214" y="296" type="line"/>
      <point x="619" y="296" type="line"/>
      <point x="619" y="420" type="line"/>
      <point x="214" y="420" type="line"/>
      <point x="214" y="576" type="line"/>
    </contour>
  </outline>
</glyph>
<glyph name="I" format="1">
  <advance width="294"/>
  <unicode hex="0049"/>
  <outline>
    <contour>
      <point x="224" y="0" type="line"/>
      <point x="224" y="700" type="line"/>
      <point x="70" y="700" type="line"/>
      <point x="70" y="0" type="line"/>
    </contour>
    <contour>
      <point x="145" y="0" type="move" name="ogonek"/>
    </contour>
    <contour>
      <point x="147" y="690" type="move" name="top"/>
    </contour>
  </outline>
</glyph>
<glyph name="J" format="1">
  <advance width="617"/>
  <unicode hex="004A"/>
  <outline>
    <contour>
      <point x="536" y="700" type="line"/>
      <point x="382" y="700" type="line"/>
      <point x="382" y="239" type="line" smooth="yes"/>
      <point x="379" y="141"/>
      <point x="329" y="100"/>
      <point x="268" y="100" type="curve" smooth="yes"/>
      <point x="185" y="100"/>
      <point x="173" y="146"/>
      <point x="151" y="208" type="curve"/>
      <point x="24" y="120" type="line"/>
      <point x="52" y="53"/>
      <point x="129" y="-12"/>
      <point x="268" y="-12" type="curve" smooth="yes"/>
      <point x="421" y="-12"/>
      <point x="541" y="82"/>
      <point x="537" y="257" type="curve" smooth="yes"/>
    </contour>
    <contour>
      <point x="294" y="690" type="move" name="top"/>
    </contour>
  </outline>
</glyph>
<glyph name="K" format="1">
  <advance width="679"/>
  <unicode hex="004B"/>
  <outline>
    <contour>
      <point x="481" y="0" type="line"/>
      <point x="654" y="0" type="line"/>
      <point x="374" y="425" type="line"/>
      <point x="626" y="700" type="line"/>
      <point x="449" y="700" type="line"/>
      <point x="204" y="433" type="line"/>
      <point x="204" y="700" type="line"/>
      <point x="50" y="700" type="line"/>
      <point x="50" y="0" type="line"/>
      <point x="204" y="0" type="line"/>
      <point x="204" y="238" type="line"/>
      <point x="274" y="314" type="line"/>
    </contour>
    <contour>
      <point x="318" y="690" type="move" name="top"/>
    </contour>
    <contour>
      <point x="318" y="10" type="move" name="bottom"/>
    </contour>
  </outline>
</glyph>
<glyph name="L" format="1">
  <advance width="615"/>
  <unicode hex="004C"/>
  <outline>
    <contour>
      <point x="203" y="124" type="line"/>
      <point x="203" y="700" type="line"/>
      <point x="50" y="700" type="line"/>
      <point x="50" y="0" type="line"/>
      <point x="585" y="0" type="line"/>
      <point x="585" y="124" type="line"/>
    </contour>
    <contour>
      <point x="308" y="690" type="move" name="top"/>
    </contour>
    <contour>
      <point x="308" y="10" type="move" name="bottom"/>
    </contour>
    <contour>
      <point x="572" y="690" type="move" name="topright"/>
    </contour>
  </outline>
</glyph>
<glyph name="N" format="1">
  <advance width="679"/>
  <unicode hex="004E"/>
  <outline>
    <contour>
      <point x="475" y="700" type="line"/>
      <point x="475" y="272" type="line"/>
      <point x="204" y="700" type="line"/>
      <point x="50" y="700" type="line"/>
      <point x="50" y="0" type="line"/>
      <point x="204" y="0" type="line"/>
      <point x="204" y="436" type="line"/>
      <point x="477" y="0" type="line"/>
      <point x="629" y="0" type="line"/>
      <point x="629" y="700" type="line"/>
    </contour>
    <contour>
      <point x="345" y="690" type="move" name="top"/>
    </contour>
    <contour>
      <point x="345" y="9" type="move" name="bottom"/>
    </contour>
  </outline>
</glyph>
<glyph name="P" format="1">
  <advance width="539"/>
  <unicode hex="0050"/>
  <outline>
    <contour>
      <point x="50" y="700" type="line"/>
      <point x="50" y="0" type="line"/>
      <point x="204" y="0" type="line"/>
      <point x="204" y="297" type="line"/>
      <point x="267" y="297" type="line" smooth="yes"/>
      <point x="382" y="297"/>
      <point x="509" y="349"/>
      <point x="509" y="499" type="curve" smooth="yes"/>
      <point x="509" y="647"/>
      <point x="377" y="700"/>
      <point x="273" y="700" type="curve" smooth="yes"/>
    </contour>
    <contour>
      <point x="204" y="409" type="line"/>
      <point x="204" y="585" type="line"/>
      <point x="270" y="585" type="line" smooth="yes"/>
      <point x="324" y="585"/>
      <point x="365" y="563"/>
      <point x="365" y="499" type="curve" smooth="yes"/>
      <point x="365" y="434"/>
      <point x="324" y="409"/>
      <point x="267" y="409" type="curve" smooth="yes"/>
    </contour>
  </outline>
</glyph>
<glyph name="R" format="1">
  <advance width="682"/>
  <unicode hex="0052"/>
  <outline>
    <contour>
      <point x="283" y="341" type="line"/>
      <point x="499" y="0" type="line"/>
      <point x="672" y="0" type="line"/>
      <point x="436" y="372" type="line"/>
    </contour>
    <contour>
      <point x="50" y="700" type="line"/>
      <point x="50" y="0" type="line"/>
      <point x="204" y="0" type="line"/>
      <point x="204" y="700" type="line"/>
    </contour>
    <contour>
      <point x="154" y="700" type="line"/>
      <point x="154" y="585" type="line"/>
      <point x="290" y="585" type="line" smooth="yes"/>
      <point x="352" y="585"/>
      <point x="385" y="564"/>
      <point x="385" y="508" type="curve" smooth="yes"/>
      <point x="385" y="452"/>
      <point x="352" y="431"/>
      <point x="290" y="431" type="curve" smooth="yes"/>
      <point x="154" y="431" type="line"/>
      <point x="154" y="316" type="line"/>
      <point x="290" y="316" type="line" smooth="yes"/>
      <point x="413" y="316"/>
      <point x="539" y="369"/>
      <point x="539" y="508" type="curve" smooth="yes"/>
      <point x="539" y="647"/>
      <point x="413" y="700"/>
      <point x="290" y="700" type="curve" smooth="yes"/>
    </contour>
    <contour>
      <point x="325" y="690" type="move" name="top"/>
    </contour>
    <contour>
      <point x="325" y="10" type="move" name="bottom"/>
    </contour>
  </outline>
</glyph>
<glyph name="S" format="1">
  <advance width="612"/>
  <unicode hex="0053"/>
  <outline>
    <contour>
      <point x="178" y="709"/>
      <point x="71" y="641"/>
      <point x="71" y="521" type="curve" smooth="yes"/>
      <point x="71" y="410"/>
      <point x="153" y="363"/>
      <point x="293" y="315" type="curve" smooth="yes"/>
      <point x="378" y="286"/>
      <point x="437" y="265"/>
      <point x="437" y="200" type="curve" smooth="yes"/>
      <point x="437" y="134"/>
      <point x="393" y="111"/>
      <point x="321" y="111" type="curve" smooth="yes"/>
      <point x="212" y="111"/>
      <point x="172" y="161"/>
      <point x="137" y="258" type="curve"/>
      <point x="12" y="195" type="line"/>
      <point x="48" y="84"/>
      <point x="144" y="-8"/>
      <point x="321" y="-8" type="curve" smooth="yes"/>
      <point x="495" y="-8"/>
      <point x="586" y="80"/>
      <point x="586" y="210" type="curve" smooth="yes"/>
      <point x="586" y="342"/>
      <point x="424" y="391"/>
      <point x="338" y="423" type="curve" smooth="yes"/>
      <point x="258" y="453"/>
      <point x="221" y="476"/>
      <point x="221" y="521" type="curve" smooth="yes"/>
      <point x="221" y="568"/>
      <point x="262" y="599"/>
      <point x="316" y="599" type="curve" smooth="yes"/>
      <point x="381" y="599"/>
      <point x="410" y="571"/>
      <point x="417" y="508" type="curve"/>
      <point x="558" y="544" type="line"/>
      <point x="547" y="649"/>
      <point x="434" y="709"/>
      <point x="316" y="709" type="curve" smooth="yes"/>
    </contour>
    <contour>
      <point x="316" y="700" type="move" name="top"/>
    </contour>
    <contour>
      <point x="321" y="0" type="move" name="bottom"/>
    </contour>
  </outline>
</glyph>
<glyph name="T" format="1">
  <advance width="717"/>
  <unicode hex="0054"/>
  <outline>
    <contour>
      <point x="692" y="700" type="line"/>
      <point x="25" y="700" type="line"/>
      <point x="25" y="576" type="line"/>
      <point x="282" y="576" type="line"/>
      <point x="282" y="0" type="line"/>
      <point x="436" y="0" type="line"/>
      <point x="436" y="576" type="line"/>
      <point x="692" y="576" type="line"/>
    </contour>
    <contour>
      <point x="359" y="350" type="move" name="center"/>
    </contour>
    <contour>
      <point x="359" y="0" type="move" name="bottom"/>
    </contour>
    <contour>
      <point x="359" y="690" type="move" name="top"/>
    </contour>
  </outline>
</glyph>
<glyph name="V" format="1">
  <advance width="629"/>
  <unicode hex="0056"/>
  <outline>
    <contour>
      <point x="482" y="700" type="line"/>
      <point x="314.150" y="210.438" type="line"/>
      <point x="147" y="700" type="line"/>
      <point x="-6" y="700" type="line"/>
      <point x="233" y="0" type="line"/>
      <point x="395" y="0" type="line"/>
      <point x="635" y="700" type="line"/>
    </contour>
  </outline>
</glyph>
<glyph name="W" format="1">
  <advance width="802"/>
  <unicode hex="0057"/>
  <outline>
    <contour>
      <point x="651" y="700" type="line"/>
      <point x="565.054" y="298.918" type="line"/>
      <point x="467.510" y="687.965" type="line"/>
      <point x="468" y="690" type="line"/>
      <point x="330" y="690" type="line"/>
      <point x="330.977" y="685.941" type="line"/>
      <point x="234.077" y="301.685" type="line"/>
      <point x="151" y="700" type="line"/>
      <point x="-3" y="700" type="line"/>
      <point x="153" y="0" type="line"/>
      <point x="302" y="0" type="line"/>
      <point x="399" y="403.193" type="line"/>
      <point x="496" y="0" type="line"/>
      <point x="645" y="0" type="line"/>
      <point x="805" y="700" type="line"/>
    </contour>
    <contour>
      <point x="401" y="690" type="move" name="top"/>
    </contour>
  </outline>
</glyph>
<glyph name="X" format="1">
  <advance width="753"/>
  <unicode hex="0058"/>
  <outline>
    <contour>
      <point x="758" y="0" type="line"/>
      <point x="473.326" y="368.340" type="line"/>
      <point x="736" y="700" type="line"/>
      <point x="554" y="700" type="line"/>
      <point x="383.746" y="484.247" type="line"/>
      <point x="217" y="700" type="line"/>
      <point x="39" y="700" type="line"/>
      <point x="289.108" y="374.581" type="line"/>
      <point x="-5" y="0" type="line"/>
      <point x="176" y="0" type="line"/>
      <point x="379.037" y="257.572" type="line"/>
      <point x="577" y="0" type="line"/>
    </contour>
  </outline>
</glyph>
<glyph name="Y" format="1">
  <advance width="703"/>
  <unicode hex="0059"/>
  <outline>
    <contour>
      <point x="20" y="700" type="line"/>
      <point x="178" y="700" type="line"/>
      <point x="411.669" y="323.671" type="line"/>
      <point x="281.946" y="294.599" type="line"/>
    </contour>
    <contour>
      <point x="525" y="700" type="line"/>
      <point x="683" y="700" type="line"/>
      <point x="420.028" y="294.569" type="line"/>
      <point x="290.418" y="322.742" type="line"/>
    </contour>
    <contour>
      <point x="428" y="0" type="line"/>
      <point x="274" y="0" type="line"/>
      <point x="274" y="340.538" type="line"/>
      <point x="428" y="341.163" type="line"/>
    </contour>
    <contour>
      <point x="352" y="690" type="move" name="top"/>
    </contour>
  </outline>
</glyph>
<glyph name="Z" format="1">
  <advance width="615"/>
  <unicode hex="005A"/>
  <outline>
    <contour>
      <point x="45" y="700" type="line"/>
      <point x="45" y="576" type="line"/>
      <point x="399.190" y="576" type="line"/>
      <point x="31.160" y="125" type="line"/>
      <point x="23" y="125" type="line"/>
      <point x="23" y="0" type="line"/>
      <point x="588" y="0" type="line"/>
      <point x="588" y="125" type="line"/>
      <point x="215.320" y="125" type="line"/>
      <point x="583.829" y="576" type="line"/>
      <point x="592" y="576" type="line"/>
      <point x="592" y="700" type="line"/>
    </contour>
    <contour>
      <point x="308" y="691" type="move" name="top"/>
    </contour>
  </outline>
</glyph>
<glyph name="grave" format="1">
  <advance width="600"/>
  <unicode hex="0060"/>
  <outline>
    <component base="acute" xOffset="561" xScale="-1"/>
    <contour>
      <point x="284" y="504" type="move" name="_top"/>
    </contour>
  </outline>
</glyph>
<glyph name="a" format="1">
  <advance width="568"/>
  <unicode hex="0061"/>
  <outline>
    <contour>
      <point x="157" y="509"/>
      <point x="46" y="424"/>
      <point x="74" y="329" type="curve"/>
      <point x="221.751" y="329" type="line"/>
      <point x="219.751" y="335"/>
      <point x="215.751" y="407"/>
      <point x="298" y="407" type="curve"/>
      <point x="350" y="408"/>
      <point x="366" y="380"/>
      <point x="366" y="329" type="curve" smooth="yes"/>
      <point x="365" y="0" type="line"/>
      <point x="518" y="0" type="line"/>
      <point x="518" y="301" type="line"/>
      <point x="518" y="379"/>
      <point x="499" y="509"/>
      <point x="292" y="509" type="curve"/>
    </contour>
    <contour>
      <point x="370.584" y="317"/>
      <point x="323.621" y="303.609"/>
      <point x="253" y="297" type="curve" smooth="yes"/>
      <point x="89.119" y="281.662"/>
      <point x="30" y="224.567"/>
      <point x="30" y="143" type="curve" smooth="yes"/>
      <point x="30" y="56"/>
      <point x="90" y="-13"/>
      <point x="220" y="-13" type="curve" smooth="yes"/>
      <point x="388" y="-13"/>
      <point x="410" y="142"/>
      <point x="400" y="249" type="curve"/>
      <point x="362" y="277" type="line"/>
      <point x="381" y="133"/>
      <point x="316" y="81"/>
      <point x="250" y="81" type="curve" smooth="yes"/>
      <point x="201" y="81"/>
      <point x="178" y="116"/>
      <point x="178" y="148" type="curve" smooth="yes"/>
      <point x="178" y="188"/>
      <point x="216" y="207"/>
      <point x="263" y="213" type="curve" smooth="yes"/>
      <point x="354" y="224"/>
      <point x="440" y="261"/>
      <point x="460" y="331" type="curve"/>
      <point x="363" y="361" type="line"/>
    </contour>
    <contour>
      <point x="288" y="503" type="move" name="_top"/>
    </contour>
  </outline>
</glyph>
<glyph name="b" format="1">
  <advance width="638"/>
  <unicode hex="0062"/>
  <outline>
    <contour>
      <point x="156.317" y="512"/>
      <point x="90.543" y="375.734"/>
      <point x="90.543" y="248.112" type="curve" smooth="yes"/>
      <point x="90.543" y="131.031"/>
      <point x="148.008" y="-9"/>
      <point x="344" y="-9" type="curve" smooth="yes"/>
      <point x="504" y="-9"/>
      <point x="608" y="111"/>
      <point x="608" y="252" type="curve" smooth="yes"/>
      <point x="608" y="394"/>
      <point x="503" y="512"/>
      <point x="344" y="512" type="curve" smooth="yes"/>
    </contour>
    <contour>
      <point x="35" y="693" type="line"/>
      <point x="36" y="0" type="line"/>
      <point x="188" y="0" type="line"/>
      <point x="188" y="98.478" type="line"/>
      <point x="142.405" y="249.181" type="line"/>
      <point x="188" y="418.805" type="line"/>
      <point x="188" y="693" type="line"/>
    </contour>
    <contour>
      <point x="407" y="402"/>
      <point x="455" y="341"/>
      <point x="455" y="252" type="curve" smooth="yes"/>
      <point x="455" y="162"/>
      <point x="407" y="102"/>
      <point x="324" y="102" type="curve" smooth="yes"/>
      <point x="235" y="102"/>
      <point x="178" y="153"/>
      <point x="178" y="252" type="curve" smooth="yes"/>
      <point x="178" y="350"/>
      <point x="235" y="402"/>
      <point x="324" y="402" type="curve" smooth="yes"/>
    </contour>
  </outline>
</glyph>
<glyph name="c" format="1">
  <advance width="599"/>
  <unicode hex="0063"/>
  <outline>
    <contour>
      <point x="565" y="365" type="line"/>
      <point x="537" y="452"/>
      <point x="448" y="511"/>
      <point x="318" y="511" type="curve" smooth="yes"/>
      <point x="154" y="511"/>
      <point x="30" y="413"/>
      <point x="30" y="245" type="curve" smooth="yes"/>
      <point x="30" y="78"/>
      <point x="165" y="-12"/>
      <point x="312" y="-12" type="curve" smooth="yes"/>
      <point x="445" y="-12"/>
      <point x="534.707" y="39.350"/>
      <point x="581.114" y="149.626" type="curve"/>
      <point x="447.134" y="202.819" type="line"/>
      <point x="428.398" y="135.819"/>
      <point x="395.446" y="94"/>
      <point x="312" y="94" type="curve" smooth="yes"/>
      <point x="222.002" y="94"/>
      <point x="174" y="157.036"/>
      <point x="174" y="245" type="curve" smooth="yes"/>
      <point x="174" y="350"/>
      <point x="238" y="406"/>
      <point x="318" y="406" type="curve" smooth="yes"/>
      <point x="374.988" y="406"/>
      <point x="432.005" y="366.543"/>
      <point x="432.005" y="302.684" type="curve"/>
    </contour>
    <contour>
      <point x="300" y="491" type="move" name="top"/>
    </contour>
    <contour>
      <point x="307" y="-5" type="move" name="bottom"/>
    </contour>
  </outline>
</glyph>
<glyph name="d" format="1">
  <advance width="638"/>
  <unicode hex="0064"/>
  <outline>
    <component base="b" xOffset="638" xScale="-1"/>
    <contour>
      <point x="312" y="254" type="move" name="center"/>
    </contour>
    <contour>
      <point x="563" y="494" type="move" name="topright"/>
    </contour>
  </outline>
</glyph>
<glyph name="e" format="1">
  <advance width="574.320"/>
  <unicode hex="0065"/>
  <outline>
    <contour>
      <point x="139" y="511"/>
      <point x="31" y="413"/>
      <point x="31" y="255" type="curve" smooth="yes"/>
      <point x="31" y="78"/>
      <point x="143.309" y="-11.929"/>
      <point x="304" y="-11.929" type="curve" smooth="yes"/>
      <point x="415.904" y="-11.929"/>
      <point x="519.129" y="35.486"/>
      <point x="554.320" y="127.585" type="curve"/>
      <point x="431" y="186" type="line"/>
      <point x="413" y="132"/>
      <point x="376.952" y="95"/>
      <point x="314" y="95" type="curve" smooth="yes"/>
      <point x="210.421" y="95"/>
      <point x="176.259" y="159.116"/>
      <point x="176.259" y="254.477" type="curve" smooth="yes"/>
      <point x="176.259" y="358.713"/>
      <point x="239.769" y="406"/>
      <point x="298" y="406" type="curve" smooth="yes"/>
      <point x="366" y="406"/>
      <point x="403.935" y="367.988"/>
      <point x="394" y="307.679" type="curve"/>
      <point x="90.561" y="307.679" type="line"/>
      <point x="89.820" y="215.452" type="line"/>
      <point x="539" y="215.452" type="line"/>
      <point x="580" y="394.452"/>
      <point x="478" y="511"/>
      <point x="294" y="511" type="curve" smooth="yes"/>
    </contour>
    <contour>
      <point x="493" y="19" type="move" name="ogonek"/>
    </contour>
    <contour>
      <point x="279" y="9" type="move" name="bottom"/>
    </contour>
    <contour>
      <point x="279" y="491" type="move" name="top"/>
    </contour>
  </outline>
</glyph>
<glyph name="g" format="1">
  <advance width="653"/>
  <unicode hex="0067"/>
  <outline>
    <contour>
      <point x="474" y="509"/>
      <point x="535" y="353"/>
      <point x="535" y="248" type="curve" smooth="yes"/>
      <point x="535" y="143"/>
      <point x="474" y="-12"/>
      <point x="294" y="-12" type="curve" smooth="yes"/>
      <point x="135" y="-12"/>
      <point x="30" y="106"/>
      <point x="30" y="248" type="curve" smooth="yes"/>
      <point x="30" y="389"/>
      <point x="134" y="509"/>
      <point x="294" y="509" type="curve" smooth="yes"/>
    </contour>
    <contour>
      <point x="231" y="398"/>
      <point x="183" y="338"/>
      <point x="183" y="248" type="curve" smooth="yes"/>
      <point x="183" y="159"/>
      <point x="231" y="98"/>
      <point x="314" y="98" type="curve" smooth="yes"/>
      <point x="403" y="98"/>
      <point x="460" y="150"/>
      <point x="460" y="248" type="curve" smooth="yes"/>
      <point x="460" y="347"/>
      <point x="403" y="398"/>
      <point x="314" y="398" type="curve" smooth="yes"/>
    </contour>
    <contour>
      <point x="603" y="-159"/>
      <point x="485" y="-260"/>
      <point x="317" y="-260" type="curve" smooth="yes"/>
      <point x="151" y="-260"/>
      <point x="70" y="-170"/>
      <point x="51" y="-86" type="curve"/>
      <point x="196" y="-58" type="line"/>
      <point x="215" y="-112"/>
      <point x="241" y="-149"/>
      <point x="317" y="-149" type="curve" smooth="yes"/>
      <point x="398" y="-149"/>
      <point x="450" y="-95"/>
      <point x="450" y="8" type="curve" smooth="yes"/>
      <point x="450" y="87" type="line"/>
      <point x="477" y="244.566" type="line"/>
      <point x="450" y="342" type="line"/>
      <point x="450" y="500" type="line"/>
      <point x="602" y="500" type="line"/>
      <point x="603" y="8" type="line"/>
    </contour>
    <contour>
      <point x="346" y="486" type="move" name="top"/>
    </contour>
  </outline>
</glyph>
<glyph name="h" format="1">
  <advance width="619.745"/>
  <unicode hex="0068"/>
  <outline>
    <contour>
      <point x="569.745" y="294" type="line" smooth="yes"/>
      <point x="569.745" y="391"/>
      <point x="526.901" y="507"/>
      <point x="341.243" y="507" type="curve" smooth="yes"/>
      <point x="190.850" y="507"/>
      <point x="135.929" y="383.489"/>
      <point x="135.929" y="246.056" type="curve"/>
      <point x="197.018" y="239.382" type="line"/>
      <point x="197.236" y="354.654"/>
      <point x="267.304" y="399"/>
      <point x="330.021" y="399" type="curve" smooth="yes"/>
      <point x="393.268" y="399"/>
      <point x="414.690" y="361"/>
      <point x="414.690" y="294" type="curve" smooth="yes"/>
      <point x="414.690" y="0" type="line"/>
      <point x="569.745" y="0" type="line"/>
    </contour>
    <contour>
      <point x="197" y="700" type="line"/>
      <point x="45" y="700" type="line"/>
      <point x="45" y="0" type="line"/>
      <point x="197" y="0" type="line"/>
    </contour>
    <contour>
      <point x="296" y="254" type="move" name="center"/>
    </contour>
    <contour>
      <point x="296" y="494" type="move" name="top"/>
    </contour>
  </outline>
</glyph>
<glyph name="i" format="1">
  <advance width="252"/>
  <unicode hex="0069"/>
  <outline>
    <contour>
      <point x="202" y="577" type="line"/>
      <point x="202" y="700" type="line"/>
      <point x="50" y="700" type="line"/>
      <point x="50" y="577" type="line"/>
    </contour>
    <contour>
      <point x="202" y="0" type="line"/>
      <point x="202" y="500" type="line"/>
      <point x="50" y="500" type="line"/>
      <point x="50" y="0" type="line"/>
    </contour>
  </outline>
</glyph>
<glyph name="j" format="1">
  <advance width="248"/>
  <unicode hex="006A"/>
  <outline>
    <contour>
      <point x="43" y="500" type="line"/>
      <point x="43" y="-62" type="line" smooth="yes"/>
      <point x="43" y="-125.271"/>
      <point x="23.110" y="-143.220"/>
      <point x="-15" y="-143.220" type="curve" smooth="yes"/>
      <point x="-62.637" y="-143.220"/>
      <point x="-95.066" y="-96.186"/>
      <point x="-101.066" y="-72.186" type="curve"/>
      <point x="-212" y="-156" type="line"/>
      <point x="-193" y="-183"/>
      <point x="-142" y="-259.878"/>
      <point x="-15" y="-259.878" type="curve" smooth="yes"/>
      <point x="169" y="-259.878"/>
      <point x="195" y="-144.461"/>
      <point x="195" y="-62" type="curve" smooth="yes"/>
      <point x="195" y="500" type="line"/>
    </contour>
    <contour>
      <point x="43" y="700" type="line"/>
      <point x="43" y="576" type="line"/>
      <point x="195" y="576" type="line"/>
      <point x="195" y="700" type="line"/>
    </contour>
  </outline>
</glyph>
<glyph name="k" format="1">
  <advance width="561"/>
  <unicode hex="006B"/>
  <outline>
    <contour>
      <point x="386" y="0" type="line"/>
      <point x="556" y="0" type="line"/>
      <point x="340.856" y="327.356" type="line"/>
      <point x="508" y="500" type="line"/>
      <point x="329" y="500" type="line"/>
      <point x="197" y="359.564" type="line"/>
      <point x="197" y="700" type="line"/>
      <point x="45" y="700" type="line"/>
      <point x="45" y="0" type="line"/>
      <point x="197" y="0" type="line"/>
      <point x="197" y="178.765" type="line"/>
      <point x="239.202" y="222.356" type="line"/>
    </contour>
    <contour>
      <point x="277" y="9" type="move" name="bottom"/>
    </contour>
  </outline>
</glyph>
<glyph name="l" format="1">
  <advance width="288"/>
  <unicode hex="006C"/>
  <outline>
    <contour>
      <point x="220" y="0" type="line"/>
      <point x="220" y="700" type="line"/>
      <point x="68" y="700" type="line"/>
      <point x="68" y="0" type="line"/>
    </contour>
    <contour>
      <point x="144" y="494" type="move" name="top"/>
    </contour>
    <contour>
      <point x="144" y="13" type="move" name="bottom"/>
    </contour>
    <contour>
      <point x="244" y="494" type="move" name="topright"/>
    </contour>
  </outline>
</glyph>
<glyph name="m" format="1">
  <advance width="994.072"/>
  <unicode hex="006D"/>
  <outline>
    <contour>
      <point x="569.745" y="294" type="line" smooth="yes"/>
      <point x="569.745" y="391"/>
      <point x="526.901" y="507"/>
      <point x="341.243" y="507" type="curve" smooth="yes"/>
      <point x="190.850" y="507"/>
      <point x="135.929" y="383.489"/>
      <point x="135.929" y="246.056" type="curve"/>
      <point x="197.018" y="239.382" type="line"/>
      <point x="197.236" y="354.654"/>
      <point x="267.304" y="399"/>
      <point x="330.021" y="399" type="curve" smooth="yes"/>
      <point x="393.268" y="399"/>
      <point x="414.690" y="361"/>
      <point x="414.690" y="294" type="curve" smooth="yes"/>
      <point x="414.690" y="0" type="line"/>
      <point x="569.745" y="0" type="line"/>
    </contour>
    <contour>
      <point x="197" y="500" type="line"/>
      <point x="45" y="500" type="line"/>
      <point x="45" y="0" type="line"/>
      <point x="197" y="0" type="line"/>
    </contour>
    <contour>
      <point x="944.072" y="294" type="line" smooth="yes"/>
      <point x="944.072" y="391"/>
      <point x="900.367" y="509"/>
      <point x="710.977" y="509" type="curve" smooth="yes"/>
      <point x="557.561" y="509"/>
      <point x="491.335" y="375.489"/>
      <point x="491.335" y="238.056" type="curve"/>
      <point x="565.223" y="239.382" type="line"/>
      <point x="565.444" y="354.654"/>
      <point x="635.552" y="401"/>
      <point x="699.529" y="401" type="curve" smooth="yes"/>
      <point x="764.048" y="401"/>
      <point x="785.900" y="361"/>
      <point x="785.900" y="294" type="curve" smooth="yes"/>
      <point x="785.900" y="0" type="line"/>
      <point x="944.072" y="0" type="line"/>
    </contour>
  </outline>
</glyph>
<glyph name="n" format="1">
  <advance width="619.745"/>
  <unicode hex="006E"/>
  <outline>
    <contour>
      <point x="569.745" y="294" type="line" smooth="yes"/>
      <point x="569.745" y="391"/>
      <point x="526.901" y="507"/>
      <point x="341.243" y="507" type="curve" smooth="yes"/>
      <point x="190.850" y="507"/>
      <point x="135.929" y="383.489"/>
      <point x="135.929" y="246.056" type="curve"/>
      <point x="197.018" y="239.382" type="line"/>
      <point x="197.236" y="354.654"/>
      <point x="267.304" y="399"/>
      <point x="330.021" y="399" type="curve" smooth="yes"/>
      <point x="393.268" y="399"/>
      <point x="414.690" y="361"/>
      <point x="414.690" y="294" type="curve" smooth="yes"/>
      <point x="414.690" y="0" type="line"/>
      <point x="569.745" y="0" type="line"/>
    </contour>
    <contour>
      <point x="197" y="500" type="line"/>
      <point x="45" y="500" type="line"/>
      <point x="45" y="0" type="line"/>
      <point x="197" y="0" type="line"/>
    </contour>
    <contour>
      <point x="300" y="510" type="move" name="top"/>
    </contour>
    <contour>
      <point x="300" y="-10" type="move" name="bottom"/>
    </contour>
  </outline>
</glyph>
<glyph name="o" format="1">
  <advance width="584"/>
  <unicode hex="006F"/>
  <outline>
    <contour>
      <point x="462.727" y="-12"/>
      <point x="571.939" y="108"/>
      <point x="571.939" y="247" type="curve" smooth="yes"/>
      <point x="571.939" y="387"/>
      <point x="462.727" y="510"/>
      <point x="302" y="510" type="curve" smooth="yes"/>
      <point x="141.273" y="510"/>
      <point x="32.061" y="387"/>
      <point x="32.061" y="247" type="curve" smooth="yes"/>
      <point x="32.061" y="108"/>
      <point x="141.273" y="-12"/>
      <point x="302" y="-12" type="curve" smooth="yes"/>
    </contour>
    <contour>
      <point x="230.300" y="93"/>
      <point x="174.534" y="143"/>
      <point x="174.534" y="247" type="curve" smooth="yes"/>
      <point x="174.534" y="352"/>
      <point x="230.300" y="402"/>
      <point x="302" y="402" type="curve" smooth="yes"/>
      <point x="373.700" y="402"/>
      <point x="429.466" y="352"/>
      <point x="429.466" y="247" type="curve" smooth="yes"/>
      <point x="429.466" y="143"/>
      <point x="373.700" y="93"/>
      <point x="302" y="93" type="curve" smooth="yes"/>
    </contour>
    <contour>
      <point x="304.561" y="500" type="move" name="top"/>
    </contour>
  </outline>
</glyph>
<glyph name="p" format="1">
  <advance width="638"/>
  <unicode hex="0070"/>
  <outline>
    <contour>
      <point x="148.008" y="506"/>
      <point x="90.543" y="365.969"/>
      <point x="90.543" y="248.888" type="curve" smooth="yes"/>
      <point x="90.543" y="121.266"/>
      <point x="156.317" y="-15"/>
      <point x="344" y="-15" type="curve" smooth="yes"/>
      <point x="503" y="-15"/>
      <point x="608" y="103"/>
      <point x="608" y="245" type="curve" smooth="yes"/>
      <point x="608" y="386"/>
      <point x="504" y="506"/>
      <point x="344" y="506" type="curve" smooth="yes"/>
    </contour>
    <contour>
      <point x="36" y="500" type="line"/>
      <point x="35" y="-200" type="line"/>
      <point x="188" y="-200" type="line"/>
      <point x="188" y="78.195" type="line"/>
      <point x="142.405" y="247.819" type="line"/>
      <point x="188" y="398.522" type="line"/>
      <point x="188" y="500" type="line"/>
    </contour>
    <contour>
      <point x="407" y="395"/>
      <point x="455" y="335"/>
      <point x="455" y="245" type="curve" smooth="yes"/>
      <point x="455" y="156"/>
      <point x="407" y="95"/>
      <point x="324" y="95" type="curve" smooth="yes"/>
      <point x="235" y="95"/>
      <point x="178" y="147"/>
      <point x="178" y="245" type="curve" smooth="yes"/>
      <point x="178" y="344"/>
      <point x="235" y="395"/>
      <point x="324" y="395" type="curve" smooth="yes"/>
    </contour>
  </outline>
</glyph>
<glyph name="r" format="1">
  <advance width="511.837"/>
  <unicode hex="0072"/>
  <outline>
    <contour>
      <point x="269.613" y="510"/>
      <point x="225.184" y="479.294"/>
      <point x="197" y="432.608" type="curve"/>
      <point x="197" y="500" type="line"/>
      <point x="45" y="500" type="line"/>
      <point x="45" y="0" type="line"/>
      <point x="197" y="0" type="line"/>
      <point x="197" y="258.573" type="line" smooth="yes"/>
      <point x="199.726" y="360.392"/>
      <point x="232.032" y="399"/>
      <point x="287" y="399" type="curve" smooth="yes"/>
      <point x="328" y="399"/>
      <point x="356" y="374"/>
      <point x="351" y="325" type="curve"/>
      <point x="501" y="325" type="line"/>
      <point x="510" y="415"/>
      <point x="446" y="510"/>
      <point x="328" y="510" type="curve" smooth="yes"/>
    </contour>
    <contour>
      <point x="244" y="491" type="move" name="top"/>
    </contour>
    <contour>
      <point x="244" y="10" type="move" name="bottom"/>
    </contour>
  </outline>
</glyph>
<glyph name="s" format="1">
  <advance width="474"/>
  <unicode hex="0073"/>
  <outline>
    <contour>
      <point x="156" y="93"/>
      <point x="130" y="166"/>
      <point x="130" y="214" type="curve"/>
      <point x="15" y="134" type="line"/>
      <point x="37" y="48"/>
      <point x="133" y="-12"/>
      <point x="235" y="-12" type="curve" smooth="yes"/>
      <point x="377" y="-12"/>
      <point x="449" y="52"/>
      <point x="449" y="153" type="curve" smooth="yes"/>
      <point x="449" y="261"/>
      <point x="314" y="296"/>
      <point x="253" y="314" type="curve" smooth="yes"/>
      <point x="206" y="328"/>
      <point x="180" y="344"/>
      <point x="180" y="370" type="curve" smooth="yes"/>
      <point x="180" y="399"/>
      <point x="204" y="412"/>
      <point x="233" y="412" type="curve" smooth="yes"/>
      <point x="278" y="412"/>
      <point x="288" y="382"/>
      <point x="289" y="360" type="curve"/>
      <point x="418" y="401" type="line"/>
      <point x="401" y="471"/>
      <point x="323" y="511"/>
      <point x="233" y="511" type="curve" smooth="yes"/>
      <point x="133" y="511"/>
      <point x="46" y="450"/>
      <point x="46" y="370" type="curve" smooth="yes"/>
      <point x="46" y="281"/>
      <point x="128" y="245"/>
      <point x="211" y="221" type="curve" smooth="yes"/>
      <point x="275" y="201"/>
      <point x="311" y="190"/>
      <point x="311" y="155" type="curve" smooth="yes"/>
      <point x="311" y="115"/>
      <point x="276" y="93"/>
      <point x="235" y="93" type="curve" smooth="yes"/>
    </contour>
    <contour>
      <point x="242" y="491" type="move" name="top"/>
    </contour>
    <contour>
      <point x="242" y="9" type="move" name="bottom"/>
    </contour>
  </outline>
</glyph>
<glyph name="t" format="1">
  <advance width="491"/>
  <unicode hex="0074"/>
  <outline>
    <contour>
      <point x="370" y="175" type="line"/>
      <point x="349" y="136"/>
      <point x="335" y="97"/>
      <point x="301" y="97" type="curve" smooth="yes"/>
      <point x="273" y="97"/>
      <point x="254" y="119"/>
      <point x="254" y="164" type="curve" smooth="yes"/>
      <point x="254" y="388" type="line"/>
      <point x="400" y="388" type="line"/>
      <point x="400" y="504" type="line"/>
      <point x="254" y="504" type="line"/>
      <point x="254" y="696" type="line"/>
      <point x="102" y="696" type="line"/>
      <point x="102" y="504" type="line"/>
      <point x="15" y="504" type="line"/>
      <point x="15" y="388" type="line"/>
      <point x="102" y="388" type="line"/>
      <point x="102" y="162" type="line" smooth="yes"/>
      <point x="102" y="73"/>
      <point x="150" y="-8"/>
      <point x="301" y="-8" type="curve" smooth="yes"/>
      <point x="404" y="-8"/>
      <point x="459" y="54"/>
      <point x="486" y="108" type="curve"/>
    </contour>
    <contour>
      <point x="251" y="254" type="move" name="center"/>
    </contour>
    <contour>
      <point x="251" y="13" type="move" name="bottom"/>
    </contour>
    <contour>
      <point x="452" y="494" type="move" name="topright"/>
    </contour>
  </outline>
</glyph>
<glyph name="u" format="1">
  <advance width="601"/>
  <unicode hex="0075"/>
  <outline>
    <contour>
      <point x="399" y="500" type="line"/>
      <point x="399" y="252.445" type="line" smooth="yes"/>
      <point x="396.184" y="125.632"/>
      <point x="334.443" y="101"/>
      <point x="280" y="101" type="curve" smooth="yes"/>
      <point x="218" y="101"/>
      <point x="197" y="139"/>
      <point x="197" y="206" type="curve" smooth="yes"/>
      <point x="197" y="500" type="line"/>
      <point x="45" y="500" type="line"/>
      <point x="45" y="206" type="line" smooth="yes"/>
      <point x="45" y="109"/>
      <point x="87" y="-7"/>
      <point x="269" y="-7" type="curve" smooth="yes"/>
      <point x="328.638" y="-7"/>
      <point x="371.273" y="14.994"/>
      <point x="399" y="50.666" type="curve"/>
      <point x="399" y="0" type="line"/>
      <point x="551" y="0" type="line"/>
      <point x="551" y="500" type="line"/>
    </contour>
    <contour>
      <point x="512" y="19" type="move" name="ogonek"/>
    </contour>
    <contour>
      <point x="298" y="490" type="move" name="top"/>
    </contour>
  </outline>
</glyph>
<glyph name="v" format="1">
  <advance width="592"/>
  <unicode hex="0076"/>
  <outline>
    <contour>
      <point x="362.640" y="0" type="line"/>
      <point x="215.968" y="0" type="line"/>
      <point x="15" y="500" type="line"/>
      <point x="166" y="500" type="line"/>
    </contour>
    <contour>
      <point x="376" y="0" type="line"/>
      <point x="230.217" y="0" type="line"/>
      <point x="426" y="500" type="line"/>
      <point x="577" y="500" type="line"/>
    </contour>
  </outline>
</glyph>
<glyph name="w" format="1">
  <advance width="778"/>
  <unicode hex="0077"/>
  <outline>
    <contour>
      <point x="174" y="500" type="line"/>
      <point x="312" y="0" type="line"/>
      <point x="164.370" y="0" type="line"/>
      <point x="22" y="500" type="line"/>
    </contour>
    <contour>
      <point x="456" y="500" type="line"/>
      <point x="593.430" y="0" type="line"/>
      <point x="446" y="0" type="line"/>
      <point x="389" y="263.309" type="line"/>
      <point x="332" y="0" type="line"/>
      <point x="184.370" y="0" type="line"/>
      <point x="322" y="500" type="line"/>
    </contour>
    <contour>
      <point x="756" y="500" type="line"/>
      <point x="613.430" y="0" type="line"/>
      <point x="466" y="0" type="line"/>
      <point x="604" y="500" type="line"/>
    </contour>
    <contour>
      <point x="388" y="500" type="move" name="top"/>
    </contour>
  </outline>
</glyph>
<glyph name="x" format="1">
  <advance width="600"/>
  <unicode hex="0078"/>
  <outline>
    <contour>
      <point x="582" y="0" type="line"/>
      <point x="385.588" y="253.762" type="line"/>
      <point x="579" y="500" type="line"/>
      <point x="399" y="500" type="line"/>
      <point x="296.300" y="369.121" type="line"/>
      <point x="195" y="500" type="line"/>
      <point x="18" y="500" type="line"/>
      <point x="203.107" y="259.601" type="line"/>
      <point x="-1" y="0" type="line"/>
      <point x="179" y="0" type="line"/>
      <point x="292.263" y="143.814" type="line"/>
      <point x="403" y="0" type="line"/>
    </contour>
  </outline>
</glyph>
<glyph name="y" format="1">
  <advance width="578"/>
  <unicode hex="0079"/>
  <outline>
    <contour>
      <point x="407" y="500" type="line"/>
      <point x="303.532" y="246.758" type="line"/>
      <point x="182" y="500" type="line"/>
      <point x="15" y="500" type="line"/>
      <point x="229.420" y="65.364" type="line"/>
      <point x="121" y="-200" type="line"/>
      <point x="278" y="-200" type="line"/>
      <point x="563" y="500" type="line"/>
    </contour>
    <contour>
      <point x="287" y="487" type="move" name="top"/>
    </contour>
  </outline>
</glyph>
<glyph name="z" format="1">
  <advance width="521"/>
  <unicode hex="007A"/>
  <outline>
    <contour>
      <point x="209.380" y="115" type="line"/>
      <point x="483" y="395" type="line"/>
      <point x="483" y="500" type="line"/>
      <point x="35" y="500" type="line"/>
      <point x="35" y="385" type="line"/>
      <point x="293.620" y="385" type="line"/>
      <point x="20" y="105" type="line"/>
      <point x="20" y="0" type="line"/>
      <point x="501" y="0" type="line"/>
      <point x="501" y="115" type="line"/>
    </contour>
    <contour>
      <point x="261" y="491" type="move" name="top"/>
    </contour>
  </outline>
</glyph>
<glyph name="braceleft" format="1">
  <advance width="512"/>
  <unicode hex="007B"/>
  <outline>
    <contour>
      <point x="384" y="784" type="line"/>
      <point x="253" y="811"/>
      <point x="171" y="746"/>
      <point x="171" y="613" type="curve" smooth="yes"/>
      <point x="171" y="518"/>
      <point x="234" y="421"/>
      <point x="225" y="397" type="curve" smooth="yes"/>
      <point x="214" y="366"/>
      <point x="180" y="374"/>
      <point x="128" y="373" type="curve"/>
      <point x="128" y="244" type="line"/>
      <point x="182" y="243"/>
      <point x="213" y="250"/>
      <point x="224" y="220" type="curve" smooth="yes"/>
      <point x="233" y="196"/>
      <point x="171" y="99"/>
      <point x="171" y="4" type="curve" smooth="yes"/>
      <point x="171" y="-129"/>
      <point x="253" y="-193"/>
      <point x="384" y="-166" type="curve"/>
      <point x="384" y="-59" type="line"/>
      <point x="328" y="-76"/>
      <point x="327" y="-51"/>
      <point x="327" y="4" type="curve" smooth="yes"/>
      <point x="327" y="95"/>
      <point x="379" y="181"/>
      <point x="351" y="257" type="curve" smooth="yes"/>
      <point x="342.573" y="278.865"/>
      <point x="329.009" y="295.802"/>
      <point x="312.496" y="308.887" type="curve"/>
      <point x="329.153" y="322.002"/>
      <point x="342.753" y="339.008"/>
      <point x="351" y="361" type="curve" smooth="yes"/>
      <point x="379" y="437"/>
      <point x="327" y="523"/>
      <point x="327" y="613" type="curve" smooth="yes"/>
      <point x="327" y="669"/>
      <point x="328" y="694"/>
      <point x="384" y="677" type="curve"/>
    </contour>
  </outline>
</glyph>
<glyph name="asciitilde" format="1">
  <advance width="600"/>
  <unicode hex="007E"/>
  <outline>
    <contour>
      <point x="431" y="387" type="line"/>
      <point x="448" y="344"/>
      <point x="436" y="306"/>
      <point x="407" y="306" type="curve" smooth="yes"/>
      <point x="376" y="306"/>
      <point x="347" y="337"/>
      <point x="311" y="363" type="curve" smooth="yes"/>
      <point x="283" y="383"/>
      <point x="235" y="410"/>
      <point x="179" y="410" type="curve" smooth="yes"/>
      <point x="4" y="410"/>
      <point x="18" y="266"/>
      <point x="33" y="234" type="curve"/>
      <point x="162" y="234" type="line"/>
      <point x="145" y="267"/>
      <point x="157" y="315"/>
      <point x="187" y="315" type="curve" smooth="yes"/>
      <point x="224" y="315"/>
      <point x="248" y="284"/>
      <point x="284" y="258" type="curve" smooth="yes"/>
      <point x="312" y="238"/>
      <point x="359" y="211"/>
      <point x="415" y="211" type="curve" smooth="yes"/>
      <point x="590" y="211"/>
      <point x="576" y="355"/>
      <point x="561" y="387" type="curve"/>
    </contour>
  </outline>
</glyph>
<glyph name="cent" format="1">
  <advance width="549"/>
  <unicode hex="00A2"/>
  <outline>
    <contour>
      <point x="340" y="700" type="line"/>
      <point x="296" y="700" type="line"/>
      <point x="296" y="0" type="line"/>
      <point x="340" y="0" type="line"/>
    </contour>
    <component base="c" yOffset="97"/>
    <contour>
      <point x="275" y="496" type="move" name="top"/>
    </contour>
    <contour>
      <point x="275" y="10" type="move" name="bottom"/>
    </contour>
  </outline>
</glyph>
<glyph name="sterling" format="1">
  <advance width="581"/>
  <unicode hex="00A3"/>
  <outline>
    <contour>
      <point x="276.889" y="125" type="line"/>
      <point x="296.668" y="162.580"/>
      <point x="303" y="205.193"/>
      <point x="303" y="241" type="curve" smooth="yes"/>
      <point x="303" y="311" type="line"/>
      <point x="411" y="311" type="line"/>
      <point x="411" y="428" type="line"/>
      <point x="303" y="428" type="line"/>
      <point x="303" y="522" type="line" smooth="yes"/>
      <point x="303" y="572"/>
      <point x="316" y="618"/>
      <point x="362" y="618" type="curve" smooth="yes"/>
      <point x="413" y="618"/>
      <point x="428" y="586"/>
      <point x="440" y="543" type="curve"/>
      <point x="561" y="626" type="line"/>
      <point x="541" y="654"/>
      <point x="490" y="723"/>
      <point x="362" y="723" type="curve" smooth="yes"/>
      <point x="176" y="723"/>
      <point x="150" y="580"/>
      <point x="150" y="522" type="curve" smooth="yes"/>
      <point x="150" y="428" type="line"/>
      <point x="71" y="428" type="line"/>
      <point x="71" y="311" type="line"/>
      <point x="150" y="311" type="line"/>
      <point x="150" y="241" type="line" smooth="yes"/>
      <point x="150" y="144.873"/>
      <point x="132.237" y="126.016"/>
      <point x="79.969" y="125" type="curve" smooth="yes"/>
      <point x="55" y="125" type="line"/>
      <point x="55" y="0" type="line"/>
      <point x="569" y="0" type="line"/>
      <point x="569" y="125" type="line"/>
    </contour>
    <contour>
      <point x="292" y="691" type="move" name="top"/>
    </contour>
    <contour>
      <point x="292" y="10" type="move" name="bottom"/>
    </contour>
    <contour>
      <point x="555" y="691" type="move" name="topright"/>
    </contour>
  </outline>
</glyph>
<glyph name="currency" format="1">
  <advance width="600"/>
  <unicode hex="00A4"/>
  <outline>
    <contour>
      <point x="505.549" y="88.009" type="line"/>
      <point x="578.078" y="162.545" type="line"/>
      <point x="509.899" y="228.889" type="line"/>
      <point x="437.369" y="154.354" type="line"/>
    </contour>
    <contour>
      <point x="43.601" y="162.659" type="line"/>
      <point x="115.893" y="87.895" type="line"/>
      <point x="185.995" y="155.678" type="line"/>
      <point x="113.702" y="230.443" type="line"/>
    </contour>
    <contour>
      <point x="447.244" y="105.587"/>
      <point x="554.238" y="212.581"/>
      <point x="554.238" y="346.507" type="curve"/>
      <point x="554.238" y="480.433"/>
      <point x="447.244" y="587.427"/>
      <point x="313.318" y="587.427" type="curve"/>
      <point x="179.393" y="587.427"/>
      <point x="72.398" y="480.433"/>
      <point x="72.398" y="346.507" type="curve"/>
      <point x="72.398" y="219.616"/>
      <point x="169.387" y="105.587"/>
      <point x="313.318" y="105.587" type="curve"/>
    </contour>
    <contour>
      <point x="227.977" y="204.226"/>
      <point x="171.037" y="269.548"/>
      <point x="171.037" y="346.507" type="curve"/>
      <point x="171.037" y="424.567"/>
      <point x="235.258" y="488.788"/>
      <point x="313.318" y="488.788" type="curve"/>
      <point x="391.379" y="488.788"/>
      <point x="455.600" y="424.567"/>
      <point x="455.600" y="346.507" type="curve"/>
      <point x="455.600" y="268.447"/>
      <point x="391.379" y="204.226"/>
      <point x="313.318" y="204.226" type="curve"/>
    </contour>
    <contour>
      <point x="433.139" y="541.979" type="line"/>
      <point x="505.527" y="467.306" type="line"/>
      <point x="578.008" y="537.570" type="line"/>
      <point x="505.620" y="612.242" type="line"/>
    </contour>
    <contour>
      <point x="119.955" y="463.224" type="line"/>
      <point x="192.484" y="537.760" type="line"/>
      <point x="116.011" y="612.174" type="line"/>
      <point x="43.482" y="537.639" type="line"/>
    </contour>
  </outline>
</glyph>
<glyph name="section" format="1">
  <advance width="572"/>
  <unicode hex="00A7"/>
  <outline>
    <contour>
      <point x="573" y="352"/>
      <point x="404" y="396"/>
      <point x="318" y="423" type="curve" smooth="yes"/>
      <point x="237" y="447"/>
      <point x="207" y="476"/>
      <point x="207" y="521" type="curve" smooth="yes"/>
      <point x="207" y="568"/>
      <point x="242" y="599"/>
      <point x="296" y="599" type="curve" smooth="yes"/>
      <point x="359" y="599"/>
      <point x="390" y="569"/>
      <point x="382" y="504" type="curve"/>
      <point x="538" y="544" type="line"/>
      <point x="527" y="649"/>
      <point x="414" y="709"/>
      <point x="296" y="709" type="curve" smooth="yes"/>
      <point x="158" y="709"/>
      <point x="51" y="621"/>
      <point x="51" y="521" type="curve" smooth="yes"/>
      <point x="51" y="480.365"/>
      <point x="66.953" y="443.319"/>
      <point x="97.254" y="411.019" type="curve"/>
      <point x="68.016" y="379.619"/>
      <point x="51" y="341.481"/>
      <point x="51" y="302" type="curve" smooth="yes"/>
      <point x="51" y="211"/>
      <point x="131" y="138"/>
      <point x="273" y="96" type="curve" smooth="yes"/>
      <point x="351" y="72"/>
      <point x="417" y="55"/>
      <point x="417" y="-9" type="curve" smooth="yes"/>
      <point x="417" y="-75"/>
      <point x="383" y="-115"/>
      <point x="301" y="-115" type="curve" smooth="yes"/>
      <point x="189" y="-115"/>
      <point x="151" y="-56"/>
      <point x="135" y="48" type="curve"/>
      <point x="-8" y="-24" type="line"/>
      <point x="28" y="-135"/>
      <point x="119" y="-227"/>
      <point x="301" y="-227" type="curve" smooth="yes"/>
      <point x="487" y="-227"/>
      <point x="573" y="-119"/>
      <point x="573" y="-9" type="curve" smooth="yes"/>
      <point x="573" y="32.656"/>
      <point x="558.456" y="65.879"/>
      <point x="535.731" y="92.713" type="curve"/>
      <point x="560.981" y="127.763"/>
      <point x="573" y="168.608"/>
      <point x="573" y="210" type="curve" smooth="yes"/>
    </contour>
    <contour>
      <point x="207" y="314.501"/>
      <point x="209.500" y="325.751"/>
      <point x="214.126" y="335.626" type="curve"/>
      <point x="232.356" y="328.101"/>
      <point x="252" y="321.211"/>
      <point x="273" y="315" type="curve" smooth="yes"/>
      <point x="351" y="291"/>
      <point x="417" y="274"/>
      <point x="417" y="210" type="curve" smooth="yes"/>
      <point x="417" y="196.178"/>
      <point x="415.514" y="183.630"/>
      <point x="412.444" y="172.355" type="curve"/>
      <point x="378.011" y="185.997"/>
      <point x="344.164" y="195.785"/>
      <point x="318" y="204" type="curve" smooth="yes"/>
      <point x="237" y="228"/>
      <point x="207" y="257"/>
      <point x="207" y="302" type="curve" smooth="yes"/>
    </contour>
  </outline>
</glyph>
<glyph name="registered" format="1">
  <advance width="808"/>
  <unicode hex="00AE"/>
  <outline>
    <contour>
      <point x="644" y="-4"/>
      <point x="802" y="175"/>
      <point x="802" y="383" type="curve" smooth="yes"/>
      <point x="802" y="592"/>
      <point x="644" y="774"/>
      <point x="404" y="774" type="curve" smooth="yes"/>
      <point x="164" y="774"/>
      <point x="6" y="592"/>
      <point x="6" y="383" type="curve" smooth="yes"/>
      <point x="6" y="175"/>
      <point x="165" y="-4"/>
      <point x="404" y="-4" type="curve" smooth="yes"/>
    </contour>
    <contour>
      <point x="249" y="92"/>
      <point x="144" y="210"/>
      <point x="144" y="383" type="curve" smooth="yes"/>
      <point x="144" y="558"/>
      <point x="250" y="678"/>
      <point x="404" y="678" type="curve" smooth="yes"/>
      <point x="559" y="678"/>
      <point x="664" y="558"/>
      <point x="664" y="383" type="curve" smooth="yes"/>
      <point x="664" y="210"/>
      <point x="559" y="92"/>
      <point x="404" y="92" type="curve" smooth="yes"/>
    </contour>
    <component base="R" xOffset="234" yOffset="196" xScale="0.564" yScale="0.564"/>
    <contour>
      <point x="404" y="760" type="move" name="top"/>
    </contour>
  </outline>
</glyph>
<glyph name="macron" format="1">
  <advance width="600"/>
  <unicode hex="00AF"/>
  <outline>
    <contour>
      <point x="589" y="632" type="line"/>
      <point x="589" y="756" type="line"/>
      <point x="21" y="756" type="line"/>
      <point x="21" y="632" type="line"/>
    </contour>
    <contour>
      <point x="305" y="503" type="move" name="_top"/>
    </contour>
  </outline>
</glyph>
<glyph name="degree" format="1">
  <advance width="600"/>
  <unicode hex="00B0"/>
  <outline>
    <contour>
      <point x="181" y="823"/>
      <point x="95" y="737"/>
      <point x="95" y="644" type="curve" smooth="yes"/>
      <point x="95" y="550"/>
      <point x="181" y="464"/>
      <point x="290" y="464" type="curve" smooth="yes"/>
      <point x="398" y="464"/>
      <point x="484" y="550"/>
      <point x="484" y="644" type="curve" smooth="yes"/>
      <point x="484" y="737"/>
      <point x="398" y="823"/>
      <point x="290" y="823" type="curve" smooth="yes"/>
    </contour>
    <contour>
      <point x="319" y="716"/>
      <point x="347" y="688"/>
      <point x="347" y="644" type="curve" smooth="yes"/>
      <point x="347" y="599"/>
      <point x="319" y="571"/>
      <point x="290" y="571" type="curve" smooth="yes"/>
      <point x="260" y="571"/>
      <point x="232" y="599"/>
      <point x="232" y="644" type="curve" smooth="yes"/>
      <point x="232" y="688"/>
      <point x="260" y="716"/>
      <point x="290" y="716" type="curve" smooth="yes"/>
    </contour>
  </outline>
</glyph>
<glyph name="twosuperior" format="1">
  <advance width="473"/>
  <unicode hex="00B2"/>
  <outline>
    <contour>
      <point x="136" y="877"/>
      <point x="63" y="799"/>
      <point x="87" y="722" type="curve"/>
      <point x="235" y="736" type="line"/>
      <point x="231" y="773"/>
      <point x="234" y="783"/>
      <point x="256" y="783" type="curve" smooth="yes"/>
      <point x="274" y="783"/>
      <point x="281" y="764"/>
      <point x="281" y="734" type="curve" smooth="yes"/>
      <point x="279" y="611"/>
      <point x="104" y="560"/>
      <point x="70" y="482" type="curve"/>
      <point x="69" y="408" type="line"/>
      <point x="443" y="408" type="line"/>
      <point x="443" y="511" type="line"/>
      <point x="269" y="511" type="line"/>
      <point x="331" y="558"/>
      <point x="434" y="625"/>
      <point x="432" y="741" type="curve" smooth="yes"/>
      <point x="431" y="802"/>
      <point x="386" y="877"/>
      <point x="256" y="877" type="curve" smooth="yes"/>
    </contour>
  </outline>
</glyph>
<glyph name="threesuperior" format="1">
  <advance width="391"/>
  <unicode hex="00B3"/>
  <outline>
    <contour>
      <point x="373" y="864" type="line"/>
      <point x="22" y="864" type="line"/>
      <point x="22" y="770" type="line"/>
      <point x="182" y="770" type="line"/>
      <point x="86" y="667" type="line"/>
      <point x="142" y="602" type="line"/>
      <point x="152" y="611"/>
      <point x="165" y="622"/>
      <point x="191" y="622" type="curve" smooth="yes"/>
      <point x="220" y="622"/>
      <point x="230" y="599"/>
      <point x="230" y="552" type="curve" smooth="yes"/>
      <point x="230" y="506"/>
      <point x="210" y="490"/>
      <point x="191" y="490" type="curve" smooth="yes"/>
      <point x="163" y="490"/>
      <point x="147" y="506"/>
      <point x="152" y="572" type="curve"/>
      <point x="1" y="572" type="line"/>
      <point x="-10" y="462"/>
      <point x="81" y="397"/>
      <point x="191" y="397" type="curve" smooth="yes"/>
      <point x="286" y="397"/>
      <point x="381" y="462"/>
      <point x="381" y="552" type="curve" smooth="yes"/>
      <point x="381" y="616"/>
      <point x="336" y="667"/>
      <point x="275" y="689" type="curve"/>
      <point x="373" y="789" type="line"/>
    </contour>
  </outline>
</glyph>
<glyph name="acute" format="1">
  <advance width="600"/>
  <unicode hex="00B4"/>
  <outline>
    <contour>
      <point x="347" y="790" type="line"/>
      <point x="134" y="591" type="line"/>
      <point x="252" y="555" type="line"/>
      <point x="424" y="662" type="line"/>
    </contour>
    <contour>
      <point x="281" y="504" type="move" name="_top"/>
    </contour>
  </outline>
</glyph>
<glyph name="cedilla" format="1">
  <advance width="600"/>
  <unicode hex="00B8"/>
  <outline>
    <contour>
      <point x="300" y="1" type="line"/>
      <point x="237" y="1" type="line"/>
      <point x="190" y="-102" type="line"/>
      <point x="281" y="-102" type="line"/>
      <point x="285" y="-95"/>
      <point x="294" y="-87"/>
      <point x="306" y="-87" type="curve" smooth="yes"/>
      <point x="316" y="-87"/>
      <point x="327" y="-93"/>
      <point x="323" y="-112" type="curve" smooth="yes"/>
      <point x="319" y="-131"/>
      <point x="293" y="-143"/>
      <point x="262" y="-143" type="curve" smooth="yes"/>
      <point x="226" y="-143"/>
      <point x="190" y="-129"/>
      <point x="178" y="-119" type="curve"/>
      <point x="178" y="-188" type="line"/>
      <point x="195" y="-200"/>
      <point x="224" y="-206"/>
      <point x="256" y="-206" type="curve" smooth="yes"/>
      <point x="310" y="-206"/>
      <point x="385" y="-185"/>
      <point x="400" y="-115" type="curve" smooth="yes"/>
      <point x="412" y="-55"/>
      <point x="368" y="-27"/>
      <point x="319" y="-27" type="curve" smooth="yes"/>
      <point x="301" y="-27"/>
      <point x="280" y="-34"/>
      <point x="272" y="-39" type="curve"/>
    </contour>
    <contour>
      <point x="286" y="0" type="move" name="_bottom"/>
    </contour>
  </outline>
</glyph>
<glyph name="onesuperior" format="1">
  <advance width="318"/>
  <unicode hex="00B9"/>
  <outline>
    <contour>
      <point x="116" y="865" type="line"/>
      <point x="117.399" y="860.245"/>
      <point x="118.397" y="855.680"/>
      <point x="119" y="851.338" type="curve"/>
      <point x="119" y="833.073" type="line"/>
      <point x="114.087" y="803.656"/>
      <point x="83.011" y="792.315"/>
      <point x="28" y="816" type="curve"/>
      <point x="28" y="717" type="line"/>
      <point x="119" y="717" type="line"/>
      <point x="119" y="402" type="line"/>
      <point x="270" y="402" type="line"/>
      <point x="270" y="865" type="line"/>
    </contour>
  </outline>
</glyph>
<glyph name="onequarter" format="1">
  <advance width="851"/>
  <unicode hex="00BC"/>
  <outline>
    <contour>
      <point x="604" y="750" type="line"/>
      <point x="27" y="2" type="line"/>
      <point x="189" y="2" type="line"/>
      <point x="767" y="750" type="line"/>
    </contour>
    <contour>
      <point x="389" y="167" type="line"/>
      <point x="388" y="89" type="line"/>
      <point x="825.208" y="89" type="line"/>
      <point x="825.208" y="186" type="line"/>
      <point x="523.799" y="186" type="line"/>
      <point x="703.208" y="398.372" type="line"/>
      <point x="638.773" y="464" type="line"/>
    </contour>
    <contour>
      <point x="606" y="408.417" type="line"/>
      <point x="606" y="2" type="line"/>
      <point x="757" y="2" type="line"/>
      <point x="757" y="463.984" type="line"/>
      <point x="638.773" y="464" type="line"/>
    </contour>
    <component base="onesuperior"/>
  </outline>
</glyph>
<glyph name="onehalf" format="1">
  <advance width="882"/>
  <unicode hex="00BD"/>
  <outline>
    <contour>
      <point x="605" y="750" type="line"/>
      <point x="27" y="2" type="line"/>
      <point x="190" y="2" type="line"/>
      <point x="767" y="750" type="line"/>
    </contour>
    <component base="onesuperior"/>
    <component base="twosuperior" xOffset="419" yOffset="-409"/>
  </outline>
</glyph>
<glyph name="threequarters" format="1">
  <advance width="851"/>
  <unicode hex="00BE"/>
  <outline>
    <contour>
      <point x="604" y="750" type="line"/>
      <point x="27" y="2" type="line"/>
      <point x="189" y="2" type="line"/>
      <point x="766" y="750" type="line"/>
    </contour>
    <contour>
      <point x="825" y="186" type="line"/>
      <point x="756" y="186" type="line"/>
      <point x="756" y="464" type="line"/>
      <point x="636" y="464" type="line"/>
      <point x="389" y="167" type="line"/>
      <point x="388" y="89" type="line"/>
      <point x="606" y="89" type="line"/>
      <point x="606" y="2" type="line"/>
      <point x="756" y="2" type="line"/>
      <point x="756" y="89" type="line"/>
      <point x="825" y="89" type="line"/>
    </contour>
    <contour>
      <point x="566" y="186" type="line"/>
      <point x="606" y="234.588" type="line"/>
      <point x="606" y="186" type="line"/>
    </contour>
    <component base="threesuperior"/>
  </outline>
</glyph>
<glyph name="AE" format="1">
  <advance width="1070"/>
  <unicode hex="00C6"/>
  <outline>
    <contour>
      <point x="585" y="286" type="line"/>
      <point x="343" y="286" type="line"/>
      <point x="577" y="700" type="line"/>
      <point x="406" y="700" type="line"/>
      <point x="8" y="0" type="line"/>
      <point x="181" y="0" type="line"/>
      <point x="280" y="175" type="line"/>
      <point x="585" y="175" type="line"/>
    </contour>
    <component base="E" xOffset="437"/>
    <contour>
      <point x="686" y="19" type="move" name="ogonek"/>
    </contour>
    <contour>
      <point x="396" y="690" type="move" name="top"/>
    </contour>
  </outline>
</glyph>
<glyph name="multiply" format="1">
  <advance width="600"/>
  <unicode hex="00D7"/>
  <outline>
    <contour>
      <point x="606" y="80" type="line"/>
      <point x="402.500" y="283.500" type="line"/>
      <point x="605" y="486" type="line"/>
      <point x="515" y="580" type="line"/>
      <point x="310.500" y="375.500" type="line"/>
      <point x="106" y="580" type="line"/>
      <point x="14" y="486" type="line"/>
      <point x="217.704" y="282.704" type="line"/>
      <point x="15" y="80" type="line"/>
      <point x="105" y="-14" type="line"/>
      <point x="309.797" y="190.797" type="line"/>
      <point x="512" y="-11" type="line"/>
    </contour>
  </outline>
</glyph>
<glyph name="Oslash" format="1">
  <advance width="828"/>
  <unicode hex="00D8"/>
  <outline>
    <component base="O"/>
    <component base="slash" xOffset="185" yOffset="53"/>
    <contour>
      <point x="379" y="691" type="move" name="top"/>
    </contour>
  </outline>
</glyph>
<glyph name="Thorn" format="1">
  <advance width="531"/>
  <unicode hex="00DE"/>
  <outline>
    <contour>
      <point x="186" y="600" type="line"/>
      <point x="186" y="700" type="line"/>
      <point x="32" y="700" type="line"/>
      <point x="32" y="0" type="line"/>
      <point x="186" y="0" type="line"/>
      <point x="186" y="193" type="line"/>
      <point x="288" y="193" type="line" smooth="yes"/>
      <point x="403" y="193"/>
      <point x="529" y="249"/>
      <point x="529" y="399" type="curve" smooth="yes"/>
      <point x="529" y="546"/>
      <point x="397" y="600"/>
      <point x="294" y="600" type="curve" smooth="yes"/>
    </contour>
    <contour>
      <point x="186" y="309" type="line"/>
      <point x="186" y="485" type="line"/>
      <point x="291" y="485" type="line" smooth="yes"/>
      <point x="344" y="485"/>
      <point x="375" y="463"/>
      <point x="375" y="399" type="curve" smooth="yes"/>
      <point x="375" y="334"/>
      <point x="344" y="309"/>
      <point x="288" y="309" type="curve" smooth="yes"/>
    </contour>
  </outline>
</glyph>
<glyph name="germandbls" format="1">
  <advance width="596"/>
  <unicode hex="00DF"/>
  <outline>
    <contour>
      <point x="183" y="4" type="line"/>
      <point x="183" y="517" type="line" smooth="yes"/>
      <point x="183" y="562"/>
      <point x="206" y="583"/>
      <point x="253" y="583" type="curve" smooth="yes"/>
      <point x="304" y="583"/>
      <point x="327" y="562"/>
      <point x="327" y="517" type="curve" smooth="yes"/>
      <point x="327" y="471"/>
      <point x="304" y="447"/>
      <point x="250" y="447" type="curve" smooth="yes"/>
      <point x="214" y="447" type="line"/>
      <point x="214" y="352" type="line"/>
      <point x="304" y="352" type="line" smooth="yes"/>
      <point x="385" y="352"/>
      <point x="437" y="312"/>
      <point x="437" y="227" type="curve" smooth="yes"/>
      <point x="437" y="146"/>
      <point x="389" y="117"/>
      <point x="299" y="117" type="curve" smooth="yes"/>
      <point x="269" y="117"/>
      <point x="229" y="132"/>
      <point x="211" y="144" type="curve"/>
      <point x="211" y="26" type="line"/>
      <point x="227" y="17"/>
      <point x="264" y="4"/>
      <point x="308" y="4" type="curve" smooth="yes"/>
      <point x="466" y="4"/>
      <point x="590" y="80"/>
      <point x="590" y="227" type="curve" smooth="yes"/>
      <point x="590" y="324"/>
      <point x="538" y="393"/>
      <point x="447" y="426" type="curve"/>
      <point x="469" y="455"/>
      <point x="479" y="486"/>
      <point x="479" y="526" type="curve" smooth="yes"/>
      <point x="479" y="653"/>
      <point x="365" y="696"/>
      <point x="253" y="696" type="curve" smooth="yes"/>
      <point x="137" y="696"/>
      <point x="31" y="653"/>
      <point x="31" y="524" type="curve" smooth="yes"/>
      <point x="31" y="4" type="line"/>
    </contour>
  </outline>
</glyph>
<glyph name="eth" format="1">
  <advance width="573"/>
  <unicode hex="00F0"/>
  <outline>
    <contour>
      <point x="566" y="486.290"/>
      <point x="483.312" y="618.080"/>
      <point x="345.658" y="698.230" type="curve"/>
      <point x="394" y="740" type="line"/>
      <point x="331" y="814" type="line"/>
      <point x="248.944" y="742.741" type="line"/>
      <point x="190.948" y="763.291"/>
      <point x="126.528" y="776.411"/>
      <point x="57" y="781" type="curve"/>
      <point x="57" y="665" type="line"/>
      <point x="87.344" y="661.522"/>
      <point x="115.617" y="656.403"/>
      <point x="141.878" y="649.763" type="curve"/>
      <point x="103" y="616" type="line"/>
      <point x="166" y="543" type="line"/>
      <point x="244.742" y="611.035" type="line"/>
      <point x="295.522" y="584.119"/>
      <point x="334.491" y="548.907"/>
      <point x="362.567" y="507.184" type="curve"/>
      <point x="339.480" y="514.112"/>
      <point x="314.584" y="518"/>
      <point x="288" y="518" type="curve" smooth="yes"/>
      <point x="281" y="518"/>
      <point x="270" y="518"/>
      <point x="261" y="517" type="curve" smooth="yes"/>
      <point x="113" y="501"/>
      <point x="25" y="390"/>
      <point x="25" y="263" type="curve" smooth="yes"/>
      <point x="25" y="254"/>
      <point x="26" y="242"/>
      <point x="27" y="232" type="curve" smooth="yes"/>
      <point x="41" y="101"/>
      <point x="143" y="-4"/>
      <point x="286" y="-4" type="curve" smooth="yes"/>
      <point x="298" y="-4"/>
      <point x="308" y="-3"/>
      <point x="318" y="-2" type="curve" smooth="yes"/>
      <point x="459.926" y="12.802"/>
      <point x="537.411" y="124.646"/>
      <point x="555.074" y="221.311" type="curve"/>
      <point x="564.011" y="259.191"/>
      <point x="566" y="294.087"/>
      <point x="566" y="326" type="curve"/>
    </contour>
    <contour>
      <point x="290" y="108" type="line" smooth="yes"/>
      <point x="229" y="108"/>
      <point x="179" y="171"/>
      <point x="179" y="267" type="curve" smooth="yes"/>
      <point x="179" y="345"/>
      <point x="220" y="398"/>
      <point x="278" y="406" type="curve" smooth="yes"/>
      <point x="326" y="413"/>
      <point x="415" y="380"/>
      <point x="415" y="251" type="curve" smooth="yes"/>
      <point x="415" y="245.094"/>
      <point x="414.760" y="239.355"/>
      <point x="414.294" y="233.785" type="curve"/>
      <point x="411.110" y="211.737" type="line"/>
      <point x="397.931" y="148.738"/>
      <point x="352.834" y="112.193"/>
      <point x="300" y="108" type="curve"/>
    </contour>
  </outline>
</glyph>
<glyph name="divide" format="1">
  <advance width="600"/>
  <unicode hex="00F7"/>
  <outline>
    <contour>
      <point x="561" y="202" type="line"/>
      <point x="561" y="318" type="line"/>
      <point x="34" y="318" type="line"/>
      <point x="34" y="202" type="line"/>
    </contour>
    <component base="colon" xOffset="162"/>
  </outline>
</glyph>
<glyph name="oslash" format="1">
  <advance width="584"/>
  <unicode hex="00F8"/>
  <outline>
    <component base="o"/>
    <component base="slash" xOffset="81" yOffset="-37"/>
    <contour>
      <point x="267" y="491" type="move" name="top"/>
    </contour>
  </outline>
</glyph>
<glyph name="thorn" format="1">
  <advance width="563"/>
  <unicode hex="00FE"/>
  <outline>
    <contour>
      <point x="246.109" y="511"/>
      <point x="208.057" y="499.957"/>
      <point x="178" y="481.750" type="curve"/>
      <point x="178" y="761" type="line"/>
      <point x="26" y="761" type="line"/>
      <point x="25" y="-191" type="line"/>
      <point x="178" y="-191" type="line"/>
      <point x="178" y="19.037" type="line"/>
      <point x="208.057" y="0.973"/>
      <point x="246.109" y="-10"/>
      <point x="294" y="-10" type="curve" smooth="yes"/>
      <point x="453" y="-10"/>
      <point x="558" y="108"/>
      <point x="558" y="249" type="curve" smooth="yes"/>
      <point x="558" y="391"/>
      <point x="454" y="511"/>
      <point x="294" y="511" type="curve" smooth="yes"/>
    </contour>
    <contour>
      <point x="225" y="100"/>
      <point x="168" y="152"/>
      <point x="168" y="249" type="curve" smooth="yes"/>
      <point x="168" y="348"/>
      <point x="225" y="400"/>
      <point x="294" y="400" type="curve" smooth="yes"/>
      <point x="357" y="400"/>
      <point x="405" y="339"/>
      <point x="405" y="249" type="curve" smooth="yes"/>
      <point x="405" y="161"/>
      <point x="357" y="100"/>
      <point x="294" y="100" type="curve" smooth="yes"/>
    </contour>
  </outline>
</glyph>
<glyph name="dotlessi" format="1">
  <advance width="248"/>
  <unicode hex="0131"/>
  <outline>
    <contour>
      <point x="200" y="0" type="line"/>
      <point x="200" y="500" type="line"/>
      <point x="48" y="500" type="line"/>
      <point x="48" y="0" type="line"/>
    </contour>
    <contour>
      <point x="219" y="19" type="move" name="ogonek"/>
    </contour>
    <contour>
      <point x="124" y="491" type="move" name="top"/>
    </contour>
  </outline>
</glyph>
<glyph name="Lslash" format="1">
  <advance width="697"/>
  <unicode hex="0141"/>
  <outline>
    <contour>
      <point x="35" y="283" type="line"/>
      <point x="406" y="389" type="line"/>
      <point x="404" y="514" type="line"/>
      <point x="34" y="408" type="line"/>
    </contour>
    <component base="L" xOffset="115"/>
  </outline>
</glyph>
<glyph name="lslash" format="1">
  <advance width="472"/>
  <unicode hex="0142"/>
  <outline>
    <contour>
      <point x="53" y="284" type="line"/>
      <point x="420" y="389" type="line"/>
      <point x="419" y="512" type="line"/>
      <point x="52" y="407" type="line"/>
    </contour>
    <component base="l" xOffset="113"/>
  </outline>
</glyph>
<glyph name="OE" format="1">
  <advance width="1157"/>
  <unicode hex="0152"/>
  <outline>
    <contour>
      <point x="164" y="705"/>
      <point x="20" y="538"/>
      <point x="20" y="348" type="curve" smooth="yes"/>
      <point x="20" y="160"/>
      <point x="166" y="-5"/>
      <point x="384" y="-5" type="curve" smooth="yes"/>
      <point x="501" y="-5"/>
      <point x="602" y="44"/>
      <point x="659" y="110" type="curve"/>
      <point x="659" y="589" type="line"/>
      <point x="602" y="655"/>
      <point x="501" y="705"/>
      <point x="384" y="705" type="curve" smooth="yes"/>
    </contour>
    <contour>
      <point x="509" y="590"/>
      <point x="594" y="492"/>
      <point x="594" y="348" type="curve" smooth="yes"/>
      <point x="594" y="206"/>
      <point x="509" y="110"/>
      <point x="384" y="110" type="curve" smooth="yes"/>
      <point x="259" y="110"/>
      <point x="174" y="206"/>
      <point x="174" y="348" type="curve" smooth="yes"/>
      <point x="174" y="492"/>
      <point x="260" y="590"/>
      <point x="384" y="590" type="curve" smooth="yes"/>
    </contour>
    <component base="E" xOffset="524"/>
    <contour>
      <point x="384" y="690" type="move" name="top"/>
    </contour>
  </outline>
</glyph>
<glyph name="circumflex" format="1">
  <advance width="600"/>
  <unicode hex="02C6"/>
  <outline>
    <contour>
      <point x="503" y="599" type="line"/>
      <point x="304.538" y="773.462" type="line"/>
      <point x="290" y="788" type="line"/>
      <point x="289" y="787.121" type="line"/>
      <point x="288" y="788" type="line"/>
      <point x="273.462" y="773.462" type="line"/>
      <point x="75" y="599" type="line"/>
      <point x="197" y="561" type="line"/>
      <point x="289" y="647.424" type="line"/>
      <point x="381" y="561" type="line"/>
    </contour>
  </outline>
</glyph>
<glyph name="breve" format="1">
  <advance width="600"/>
  <unicode hex="02D8"/>
  <outline>
    <contour>
      <point x="379" y="724" type="line"/>
      <point x="343" y="642"/>
      <point x="317" y="632"/>
      <point x="288" y="630" type="curve"/>
      <point x="259" y="632"/>
      <point x="233" y="642"/>
      <point x="197" y="724" type="curve"/>
      <point x="62" y="725" type="line"/>
      <point x="131" y="562"/>
      <point x="207" y="524"/>
      <point x="288" y="522" type="curve"/>
      <point x="369" y="524"/>
      <point x="445" y="562"/>
      <point x="514" y="725" type="curve"/>
    </contour>
    <contour>
      <point x="288" y="502" type="move" name="_top"/>
    </contour>
  </outline>
</glyph>
<glyph name="dotaccent" format="1">
  <advance width="248"/>
  <unicode hex="02D9"/>
  <outline>
    <contour>
      <point x="201" y="584" type="line"/>
      <point x="201" y="708" type="line"/>
      <point x="47" y="708" type="line"/>
      <point x="47" y="584" type="line"/>
    </contour>
    <contour>
      <point x="124" y="503" type="move" name="_top"/>
    </contour>
  </outline>
</glyph>
<glyph name="ring" format="1">
  <advance width="600"/>
  <unicode hex="02DA"/>
  <outline>
    <contour>
      <point x="354" y="539"/>
      <point x="420" y="605"/>
      <point x="420" y="682" type="curve" smooth="yes"/>
      <point x="420" y="759"/>
      <point x="354" y="825"/>
      <point x="277" y="825" type="curve" smooth="yes"/>
      <point x="200" y="825"/>
      <point x="134" y="759"/>
      <point x="134" y="682" type="curve" smooth="yes"/>
      <point x="134" y="605"/>
      <point x="200" y="539"/>
      <point x="277" y="539" type="curve" smooth="yes"/>
    </contour>
    <contour>
      <point x="247" y="629"/>
      <point x="224" y="652"/>
      <point x="224" y="682" type="curve" smooth="yes"/>
      <point x="224" y="712"/>
      <point x="247" y="735"/>
      <point x="277" y="735" type="curve" smooth="yes"/>
      <point x="307" y="735"/>
      <point x="330" y="712"/>
      <point x="330" y="682" type="curve" smooth="yes"/>
      <point x="330" y="652"/>
      <point x="307" y="629"/>
      <point x="277" y="629" type="curve" smooth="yes"/>
    </contour>
  </outline>
</glyph>
<glyph name="ogonek" format="1">
  <advance width="600"/>
  <unicode hex="02DB"/>
  <outline>
    <contour>
      <point x="261" y="26" type="line"/>
      <point x="231" y="-10"/>
      <point x="220" y="-37"/>
      <point x="220" y="-67" type="curve" smooth="yes"/>
      <point x="220" y="-151"/>
      <point x="293" y="-193"/>
      <point x="366" y="-193" type="curve" smooth="yes"/>
      <point x="410" y="-193"/>
      <point x="445" y="-185"/>
      <point x="470" y="-169" type="curve"/>
      <point x="470" y="-65" type="line"/>
      <point x="447" y="-85"/>
      <point x="406" y="-109"/>
      <point x="367" y="-109" type="curve" smooth="yes"/>
      <point x="343" y="-109"/>
      <point x="322" y="-93"/>
      <point x="322" y="-65" type="curve" smooth="yes"/>
      <point x="322" y="-30"/>
      <point x="343" y="3"/>
      <point x="366" y="26" type="curve"/>
    </contour>
    <contour>
      <point x="296" y="0" type="move" name="_ogonek"/>
    </contour>
  </outline>
</glyph>
<glyph name="Delta" format="1">
  <advance width="652"/>
  <unicode hex="0394"/>
  <outline>
    <contour>
      <point x="652" y="131" type="line"/>
      <point x="411" y="700" type="line"/>
      <point x="241" y="700" type="line"/>
      <point x="0" y="131" type="line"/>
      <point x="0" y="0" type="line"/>
      <point x="652" y="0" type="line"/>
    </contour>
    <contour>
      <point x="326" y="560" type="line"/>
      <point x="487.760" y="131" type="line"/>
      <point x="164.240" y="131" type="line"/>
    </contour>
  </outline>
</glyph>
<glyph name="mu" format="1">
  <advance width="556"/>
  <unicode hex="03BC"/>
  <outline>
    <contour>
      <point x="380" y="500" type="line"/>
      <point x="380" y="250.453" type="line" smooth="yes"/>
      <point x="377.184" y="121.580"/>
      <point x="314.481" y="96"/>
      <point x="260" y="96" type="curve" smooth="yes"/>
      <point x="197" y="96"/>
      <point x="176" y="136"/>
      <point x="176" y="203" type="curve" smooth="yes"/>
      <point x="176" y="500" type="line"/>
      <point x="22" y="500" type="line"/>
      <point x="22" y="-200" type="line"/>
      <point x="176" y="-200" type="line"/>
      <point x="176" y="-4.697" type="line"/>
      <point x="197.435" y="-9.417"/>
      <point x="221.661" y="-12"/>
      <point x="249" y="-12" type="curve" smooth="yes"/>
      <point x="300.221" y="-12"/>
      <point x="344.742" y="-0.417"/>
      <point x="380" y="21.792" type="curve"/>
      <point x="380" y="-6" type="line"/>
      <point x="534" y="-6" type="line"/>
      <point x="534" y="500" type="line"/>
    </contour>
    <contour>
      <point x="494" y="14" type="move" name="ogonek"/>
    </contour>
    <contour>
      <point x="278" y="490" type="move" name="top"/>
    </contour>
  </outline>
</glyph>
<glyph name="pi" format="1">
  <advance width="600"/>
  <unicode hex="03C0"/>
  <outline>
    <contour>
      <point x="604" y="505" type="line"/>
      <point x="-1" y="505" type="line"/>
      <point x="-1" y="374" type="line"/>
      <point x="88" y="374" type="line"/>
      <point x="88" y="-3" type="line"/>
      <point x="248" y="-3" type="line"/>
      <point x="248" y="374" type="line"/>
      <point x="353" y="374" type="line"/>
      <point x="353" y="-3" type="line"/>
      <point x="513" y="-3" type="line"/>
      <point x="513" y="374" type="line"/>
      <point x="604" y="374" type="line"/>
    </contour>
  </outline>
</glyph>
<glyph name="endash" format="1">
  <advance width="600"/>
  <unicode hex="2013"/>
  <outline>
    <contour>
      <point x="537" y="252" type="line"/>
      <point x="537" y="368" type="line"/>
      <point x="62" y="368" type="line"/>
      <point x="62" y="252" type="line"/>
    </contour>
  </outline>
</glyph>
<glyph name="fraction" format="1">
  <advance width="784"/>
  <unicode hex="2044"/>
  <outline>
    <contour>
      <point x="603" y="749" type="line"/>
      <point x="26" y="0" type="line"/>
      <point x="189" y="0" type="line"/>
      <point x="766" y="749" type="line"/>
    </contour>
  </outline>
</glyph>
<glyph name="Euro" format="1">
  <advance width="784"/>
  <unicode hex="20AC"/>
  <outline>
    <contour>
      <point x="561" y="453" type="line"/>
      <point x="22" y="453" type="line"/>
      <point x="22" y="360" type="line"/>
      <point x="561" y="360" type="line"/>
    </contour>
    <contour>
      <point x="561" y="308" type="line"/>
      <point x="22" y="308" type="line"/>
      <point x="22" y="215" type="line"/>
      <point x="561" y="215" type="line"/>
    </contour>
    <component base="C" xOffset="83"/>
  </outline>
</glyph>
<glyph name="trademark" format="1">
  <advance width="878"/>
  <unicode hex="2122"/>
  <outline>
    <contour>
      <point x="729" y="386" type="line"/>
      <point x="811" y="386" type="line"/>
      <point x="811" y="698" type="line"/>
      <point x="702" y="699" type="line"/>
      <point x="609" y="481" type="line"/>
      <point x="515" y="699" type="line"/>
      <point x="405" y="698" type="line"/>
      <point x="405" y="386" type="line"/>
      <point x="487" y="386" type="line"/>
      <point x="487" y="552" type="line"/>
      <point x="560" y="386" type="line"/>
      <point x="657" y="386" type="line"/>
      <point x="729" y="550" type="line"/>
    </contour>
    <contour>
      <point x="65" y="616" type="line"/>
      <point x="65" y="698" type="line"/>
      <point x="352" y="698" type="line"/>
      <point x="352" y="616" type="line"/>
      <point x="250" y="616" type="line"/>
      <point x="250" y="386" type="line"/>
      <point x="167" y="386" type="line"/>
      <point x="167" y="616" type="line"/>
    </contour>
  </outline>
</glyph>
<glyph name="partialdiff" format="1">
  <advance width="573"/>
  <unicode hex="2202"/>
  <outline>
    <contour>
      <point x="573" y="533"/>
      <point x="438" y="785"/>
      <point x="181" y="785" type="curve" smooth="yes"/>
      <point x="156" y="785"/>
      <point x="126" y="783"/>
      <point x="89" y="776" type="curve"/>
      <point x="102" y="715" type="line"/>
      <point x="236" y="763"/>
      <point x="377" y="657"/>
      <point x="391" y="481" type="curve"/>
      <point x="347" y="502"/>
      <point x="304" y="510"/>
      <point x="265" y="510" type="curve" smooth="yes"/>
      <point x="100" y="510"/>
      <point x="-6" y="370"/>
      <point x="-6" y="230" type="curve" smooth="yes"/>
      <point x="-6" y="61"/>
      <point x="145" y="-15"/>
      <point x="257" y="-15" type="curve" smooth="yes"/>
      <point x="366" y="-15"/>
      <point x="573" y="81"/>
      <point x="573" y="336" type="curve" smooth="yes"/>
    </contour>
    <contour>
      <point x="203" y="95"/>
      <point x="146" y="160"/>
      <point x="146" y="242" type="curve" smooth="yes"/>
      <point x="146" y="310"/>
      <point x="199" y="396"/>
      <point x="278" y="396" type="curve" smooth="yes"/>
      <point x="335" y="396"/>
      <point x="396" y="341"/>
      <point x="396" y="260" type="curve" smooth="yes"/>
      <point x="396" y="196"/>
      <point x="351" y="95"/>
      <point x="264" y="95" type="curve" smooth="yes"/>
    </contour>
  </outline>
</glyph>
<glyph name="summation" format="1">
  <advance width="732"/>
  <unicode hex="2211"/>
  <outline>
    <contour>
      <point x="678" y="699" type="line"/>
      <point x="60" y="699" type="line"/>
      <point x="60" y="567" type="line"/>
      <point x="410.182" y="301.125" type="line"/>
      <point x="60" y="26" type="line"/>
      <point x="60" y="-106" type="line"/>
      <point x="678" y="-106" type="line"/>
      <point x="678" y="26" type="line"/>
      <point x="263.933" y="26" type="line"/>
      <point x="614" y="298" type="line"/>
      <point x="266.620" y="567" type="line"/>
      <point x="678" y="567" type="line"/>
    </contour>
  </outline>
</glyph>
<glyph name="radical" format="1">
  <advance width="497"/>
  <unicode hex="221A"/>
  <outline>
    <contour>
      <point x="487" y="523" type="line"/>
      <point x="377" y="523" type="line"/>
      <point x="247.934" y="146.211" type="line"/>
      <point x="202" y="280" type="line"/>
      <point x="107.425" y="280" type="line"/>
      <point x="18" y="212" type="line"/>
      <point x="70" y="149" type="line"/>
      <point x="122.368" y="191.549" type="line"/>
      <point x="192.998" y="-14.168" type="line"/>
      <point x="302.504" y="-12.730" type="line"/>
    </contour>
  </outline>
</glyph>
<glyph name="infinity" format="1">
  <advance width="858"/>
  <unicode hex="221E"/>
  <outline>
    <contour>
      <point x="557.455" y="553"/>
      <point x="491.100" y="503.961"/>
      <point x="432.517" y="445.982" type="curve"/>
      <point x="370.871" y="503.981"/>
      <point x="300.246" y="553"/>
      <point x="215" y="553" type="curve" smooth="yes"/>
      <point x="82" y="553"/>
      <point x="17" y="437"/>
      <point x="17" y="345" type="curve" smooth="yes"/>
      <point x="17" y="253"/>
      <point x="81" y="138"/>
      <point x="214" y="138" type="curve" smooth="yes"/>
      <point x="293.174" y="138"/>
      <point x="369.751" y="189.928"/>
      <point x="430.404" y="244.313" type="curve"/>
      <point x="488.280" y="190.366"/>
      <point x="563.876" y="138"/>
      <point x="642" y="138" type="curve" smooth="yes"/>
      <point x="775" y="138"/>
      <point x="841" y="254"/>
      <point x="841" y="346" type="curve" smooth="yes"/>
      <point x="841" y="438"/>
      <point x="776" y="553"/>
      <point x="643" y="553" type="curve" smooth="yes"/>
    </contour>
    <contour>
      <point x="179" y="262"/>
      <point x="151" y="295"/>
      <point x="151" y="346" type="curve" smooth="yes"/>
      <point x="151" y="397"/>
      <point x="179" y="429"/>
      <point x="214" y="429" type="curve" smooth="yes"/>
      <point x="261.063" y="429"/>
      <point x="295.212" y="395.789"/>
      <point x="337.710" y="345.317" type="curve"/>
      <point x="303.580" y="308.947"/>
      <point x="260.176" y="262"/>
      <point x="215" y="262" type="curve" smooth="yes"/>
    </contour>
    <contour>
      <point x="607.082" y="262"/>
      <point x="570.270" y="303.098"/>
      <point x="530.031" y="345.603" type="curve"/>
      <point x="579.176" y="399.424"/>
      <point x="606.429" y="429"/>
      <point x="642" y="429" type="curve" smooth="yes"/>
      <point x="686" y="429"/>
      <point x="707" y="389"/>
      <point x="707" y="345" type="curve" smooth="yes"/>
      <point x="707" y="302"/>
      <point x="687" y="262"/>
      <point x="643" y="262" type="curve" smooth="yes"/>
    </contour>
  </outline>
</glyph>
<glyph name="integral" format="1">
  <advance width="600"/>
  <unicode hex="222B"/>
  <outline>
    <contour>
      <point x="65" y="-55" type="line"/>
      <point x="44" y="-130"/>
      <point x="97" y="-238"/>
      <point x="236" y="-224" type="curve" smooth="yes"/>
      <point x="438" y="-202"/>
      <point x="438" y="22"/>
      <point x="369" y="285" type="curve" smooth="yes"/>
      <point x="324" y="459"/>
      <point x="276" y="663"/>
      <point x="314" y="667" type="curve"/>
      <point x="336" y="667"/>
      <point x="336" y="626"/>
      <point x="332" y="609" type="curve"/>
      <point x="475" y="609" type="line"/>
      <point x="482" y="681"/>
      <point x="431" y="788"/>
      <point x="300" y="773" type="curve" smooth="yes"/>
      <point x="67" y="749"/>
      <point x="144" y="468"/>
      <point x="196" y="268" type="curve" smooth="yes"/>
      <point x="255" y="33"/>
      <point x="243" y="-118"/>
      <point x="221" y="-117" type="curve"/>
      <point x="193" y="-118"/>
      <point x="208" y="-67"/>
      <point x="211" y="-55" type="curve"/>
    </contour>
  </outline>
</glyph>
<glyph name="notequal" format="1">
  <advance width="600"/>
  <unicode hex="2260"/>
  <outline>
    <contour>
      <point x="129" y="-118" type="line"/>
      <point x="357" y="650" type="line"/>
      <point x="507" y="650" type="line"/>
      <point x="279" y="-118" type="line"/>
    </contour>
    <component base="equal"/>
  </outline>
</glyph>
<glyph name="lessequal" format="1">
  <advance width="600"/>
  <unicode hex="2264"/>
  <outline>
    <contour>
      <point x="572" y="0" type="line"/>
      <point x="572" y="117" type="line"/>
      <point x="7" y="117" type="line"/>
      <point x="7" y="0" type="line"/>
    </contour>
    <component base="less" yOffset="125"/>
  </outline>
</glyph>
<glyph name="lozenge" format="1">
  <advance width="754"/>
  <unicode hex="25CA"/>
  <outline>
    <contour>
      <point x="723.682" y="286.985" type="line"/>
      <point x="377" y="592.827" type="line"/>
      <point x="30.319" y="286.985" type="line"/>
      <point x="377" y="-19.764" type="line"/>
    </contour>
    <contour>
      <point x="530.196" y="287" type="line"/>
      <point x="377" y="145.213" type="line"/>
      <point x="223.805" y="287" type="line"/>
      <point x="377" y="428.787" type="line"/>
    </contour>
  </outline>
</glyph>
<glyph name="fi" format="1">
  <advance width="602"/>
  <unicode hex="FB01"/>
  <outline>
    <contour>
      <point x="104" y="742"/>
      <point x="47" y="648"/>
      <point x="47" y="579" type="curve" smooth="yes"/>
      <point x="47" y="558"/>
      <point x="49" y="532"/>
      <point x="66" y="505" type="curve"/>
      <point x="-11" y="505" type="line"/>
      <point x="-11" y="389" type="line"/>
      <point x="77" y="389" type="line"/>
      <point x="76" y="4" type="line"/>
      <point x="228" y="4" type="line"/>
      <point x="228" y="389" type="line"/>
      <point x="424.281" y="389" type="line"/>
      <point x="424.281" y="505" type="line"/>
      <point x="223" y="505" type="line"/>
      <point x="190" y="522"/>
      <point x="180" y="550"/>
      <point x="180" y="576" type="curve" smooth="yes"/>
      <point x="180" y="620"/>
      <point x="217" y="638"/>
      <point x="249" y="638" type="curve" smooth="yes"/>
      <point x="301" y="638"/>
      <point x="322" y="626"/>
      <point x="375" y="565" type="curve"/>
      <point x="544" y="565" type="line"/>
      <point x="544" y="697" type="line"/>
      <point x="389" y="697" type="line"/>
      <point x="373" y="710"/>
      <point x="318" y="742"/>
      <point x="249" y="742" type="curve" smooth="yes"/>
    </contour>
    <contour>
      <point x="544" y="505" type="line"/>
      <point x="392" y="505" type="line"/>
      <point x="392" y="4" type="line"/>
      <point x="544" y="4" type="line"/>
    </contour>
  </outline>
</glyph>
